<ttFont>
          <CharString index="0">
            vlineto
            -105 callsubr
            return
          </CharString>
          <CharString index="1">
            42 callgsubr
            -29 -69 callgsubr
            239 -96 callsubr
            return
          </CharString>
          <CharString index="2">
            26 -100 callgsubr
            return
          </CharString>
          <CharString index="3">
            -26 -6 -67 callsubr
            6 6 26 vhcurveto
            return
          </CharString>
          <CharString index="4">
            -329 -106 callgsubr
            return
          </CharString>
          <CharString index="5">
            26 5 -61 callgsubr
            -160 vlineto
            -8 callgsubr
            137 -138 -398 hlineto
            -14 callgsubr
            return
          </CharString>
          <CharString index="6">
            175 -106 callsubr
            return
          </CharString>
          <CharString index="7">
            -53 25 -92 callgsubr
            return
          </CharString>
          <CharString index="8">
            -93 callsubr
            -88 callgsubr
            return
          </CharString>
          <CharString index="9">
            -53 -25 -77 callgsubr
            return
          </CharString>
          <CharString index="10">
            -26 -6 -105 callgsubr
            237 hlineto
            return
          </CharString>
          <CharString index="11">
            -91 callsubr
            201 hlineto
            return
          </CharString>
          <CharString index="12">
            -88 callsubr
            208 59 -116 -102 callgsubr
            return
          </CharString>
          <CharString index="13">
            -94 callgsubr
            -87 return
          </CharString>
          <CharString index="14">
            vlineto
            -86 callgsubr
            return
          </CharString>
          <CharString index="15">
            6 26 hvcurveto
            return
          </CharString>
          <CharString index="16">
            vlineto
            53 25 -83 callgsubr
            return
          </CharString>
          <CharString index="17">
            -26 -6 -92 callsubr
            return
          </CharString>
          <CharString index="18">
            26 6 -61 callgsubr
            return
          </CharString>
          <CharString index="19">
            vlineto
            -100 callsubr
            return
          </CharString>
          <CharString index="20">
            6 26 vhcurveto
            return
          </CharString>
          <CharString index="21">
            hlineto
            -26 -5 -67 callsubr
            5 6 26 vhcurveto
            return
          </CharString>
          <CharString index="22">
            hlineto
            -89 callsubr
            return
          </CharString>
          <CharString index="23">
            90 callsubr
            1 callsubr
            2 callsubr
            return
          </CharString>
          <CharString index="24">
            -23 callgsubr
            -285 return
          </CharString>
          <CharString index="25">
            -136 -76 callsubr
            return
          </CharString>
          <CharString index="26">
            175 callgsubr
            114 -2 callsubr
            return
          </CharString>
          <CharString index="27">
            -66 callsubr
            -48 callgsubr
            return
          </CharString>
          <CharString index="28">
            -83 callsubr
            -7 callgsubr
            return
          </CharString>
          <CharString index="29">
            -48 callsubr
            -113 -88 callsubr
            return
          </CharString>
          <CharString index="30">
            -59 461 -238 hlineto
            14 callsubr
            -385 210 callgsubr
            return
          </CharString>
          <CharString index="31">
            -59 -70 callgsubr
            return
          </CharString>
          <CharString index="32">
            563 137 vlineto
            endchar
          </CharString>
          <CharString index="33">
            vlineto
            -21 callgsubr
            return
          </CharString>
          <CharString index="34">
            25 53 hvcurveto
            return
          </CharString>
          <CharString index="35">
            -68 callsubr
            -200 -84 callgsubr
            return
          </CharString>
          <CharString index="36">
            hlineto
            -80 callsubr
            return
          </CharString>
          <CharString index="37">
            537 -137 -365 83 callgsubr
            425 -64 callgsubr
            407 return
          </CharString>
          <CharString index="38">
            -251 -56 callgsubr
            return
          </CharString>
          <CharString index="39">
            -6 -26 vhcurveto
            return
          </CharString>
          <CharString index="40">
            -92 callsubr
            225 vlineto
            26 return
          </CharString>
          <CharString index="41">
            -53 -24 -77 callgsubr
            return
          </CharString>
          <CharString index="42">
            94 callgsubr
            11 -19 callsubr
            return
          </CharString>
          <CharString index="43">
            hlineto
            -98 callsubr
            return
          </CharString>
          <CharString index="44">
            -35 callgsubr
            -327 -71 callgsubr
            return
          </CharString>
          <CharString index="45">
            hlineto
            -26 -5 5 26 hvcurveto
            return
          </CharString>
          <CharString index="46">
            -84 callgsubr
            140 return
          </CharString>
          <CharString index="47">
            -100 callsubr
            380 -85 callgsubr
            119 -138 -106 vlineto
            -26 -6 186 callgsubr
            return
          </CharString>
          <CharString index="48">
            vlineto
            -55 callsubr
            return
          </CharString>
          <CharString index="49">
            7 hvcurveto
            -91 -74 callgsubr
          </CharString>
          <CharString index="50">
            rmoveto
            -75 callgsubr
            -209 -84 callgsubr
            return
          </CharString>
          <CharString index="51">
            -64 callsubr
            -156 -88 callsubr
            177 59 -97 -84 callgsubr
            130 -107 callsubr
            187 -45 callgsubr
            -303 22 callgsubr
            -529 126 callgsubr
            157 -25 callsubr
            138 59 -138 126 callgsubr
            160 -25 callsubr
            return
          </CharString>
          <CharString index="52">
            -53 -24 -25 -53 hvcurveto
            -251 166 callgsubr
            return
          </CharString>
          <CharString index="53">
            -53 25 -31 callsubr
            return
          </CharString>
          <CharString index="54">
            -42 callsubr
            -49 callgsubr
          </CharString>
          <CharString index="55">
            -106 callgsubr
            220 38 callgsubr
          </CharString>
          <CharString index="56">
            84 callsubr
            -144 -62 callsubr
            51 -126 175 callsubr
            302 -41 callsubr
            113 -47 callsubr
            -224 -62 callsubr
            94 -41 callgsubr
            142 -55 callgsubr
            -51 126 61 -47 callsubr
            -301 -2 callgsubr
            -115 -71 callgsubr
            225 -55 callgsubr
            return
          </CharString>
          <CharString index="57">
            53 -24 25 -53 vhcurveto
            return
          </CharString>
          <CharString index="58">
            rmoveto
            53 -26 26 -53 vhcurveto
            -366 -2 callgsubr
            -464 -71 callgsubr
            366 -41 callsubr
            -133 11 rmoveto
            -4 callsubr
            return
          </CharString>
          <CharString index="59">
            -90 callsubr
            99 6 callsubr
            6 26 hvcurveto
            140 vlineto
            26 6 -36 callsubr
            -25 70 callsubr
            return
          </CharString>
          <CharString index="60">
            vlineto
            53 -26 26 -53 vhcurveto
            return
          </CharString>
          <CharString index="61">
            -563 267 callgsubr
            return
          </CharString>
          <CharString index="62">
            vlineto
            21 -8 -18 10 -30 hhcurveto
            -226 hlineto
            -53 -26 -26 -53 hvcurveto
            -327 87 callgsubr
            return
          </CharString>
          <CharString index="63">
            -106 callsubr
            131 callgsubr
            return
          </CharString>
          <CharString index="64">
            13 callsubr
            166 hlineto
            25 10 -9 -24 hvcurveto
            -301 157 callgsubr
            return
          </CharString>
          <CharString index="65">
            -1 -6 0 -6 -7 vvcurveto
            return
          </CharString>
          <CharString index="66">
            hlineto
            -37 callsubr
            return
          </CharString>
          <CharString index="67">
            vlineto
            -34 callsubr
            return
          </CharString>
          <CharString index="68">
            rmoveto
            27 callgsubr
            -286 90 3 callgsubr
            335 285 callgsubr
            endchar
          </CharString>
          <CharString index="69">
            -26 -5 -5 -26 vhcurveto
            return
          </CharString>
          <CharString index="70">
            53 26 26 53 hvcurveto
            return
          </CharString>
          <CharString index="71">
            28 callgsubr
            -105 118 118 -58 callgsubr
            -353 hlineto
            -53 return
          </CharString>
          <CharString index="72">
            136 vlineto
            endchar
          </CharString>
          <CharString index="73">
            53 -25 25 -53 vhcurveto
            return
          </CharString>
          <CharString index="74">
            26 -1 callgsubr
            return
          </CharString>
          <CharString index="75">
            -20 callgsubr
            604 -280 145 callgsubr
            137 vlineto
            endchar
          </CharString>
          <CharString index="76">
            -92 callgsubr
            -34 callgsubr
            return
          </CharString>
          <CharString index="77">
            vlineto
            -13 callgsubr
            return
          </CharString>
          <CharString index="78">
            -26 callgsubr
            endchar
          </CharString>
          <CharString index="79">
            -90 callsubr
            133 303 vlineto
            188 callsubr
            165 -58 callgsubr
            -360 -64 callsubr
            return
          </CharString>
          <CharString index="80">
            304 319 callsubr
            266 -138 -95 vlineto
            5 callsubr
            return
          </CharString>
          <CharString index="81">
            -64 callgsubr
            270 return
          </CharString>
          <CharString index="82">
            vlineto
            26 -32 callgsubr
            return
          </CharString>
          <CharString index="83">
            -6 -68 callsubr
            return
          </CharString>
          <CharString index="84">
            rmoveto
            -26 -7 21 callsubr
            394 267 vlineto
            return
          </CharString>
          <CharString index="85">
            rmoveto
            308 callgsubr
            130 -356 rlineto
            67 309 callsubr
            -176 hlineto
            -239 -622 rlineto
            131 hlineto
            45 123 rlineto
            302 hlineto
            endchar
          </CharString>
          <CharString index="86">
            -251 -29 callsubr
          </CharString>
          <CharString index="87">
            208 callgsubr
            351 -242 rlineto
            -2 -5 -7 -1 -9 hhcurveto
            return
          </CharString>
          <CharString index="88">
            hvcurveto
            -11 11 callgsubr
            return
          </CharString>
          <CharString index="89">
            -386 -63 callgsubr
            return
          </CharString>
          <CharString index="90">
            10 callsubr
            136 vlineto
            endchar
          </CharString>
          <CharString index="91">
            -85 callsubr
            -68 return
          </CharString>
          <CharString index="92">
            rmoveto
            172 149 rlineto
            -135 hlineto
            -103 -96 -104 96 rlineto
            -135 hlineto
            172 -149 rlineto
            return
          </CharString>
          <CharString index="93">
            rmoveto
            -393 157 callgsubr
            -166 264 callgsubr
            226 hlineto
            30 18 10 21 8 hvcurveto
            -31 129 247 callsubr
          </CharString>
          <CharString index="94">
            rmoveto
            136 -47 callsubr
            -370 -2 callgsubr
            -464 -71 callgsubr
            370 -41 callsubr
            136 -135 -125 -17 callgsubr
            -196 -62 callsubr
            442 -41 callgsubr
            196 -55 callgsubr
            -125 vlineto
            endchar
          </CharString>
          <CharString index="95">
            23 callsubr
            154 -107 callsubr
            208 59 -288 287 callgsubr
            return
          </CharString>
          <CharString index="96">
            33 callsubr
            -239 vlineto
            -53 25 -25 53 vhcurveto
            return
          </CharString>
          <CharString index="97">
            rmoveto
            86 -47 callsubr
            -321 hlineto
            -63 callsubr
            321 -41 callsubr
            85 -127 -74 -17 callgsubr
            -161 13 callgsubr
            161 -55 callgsubr
            -75 vlineto
            endchar
          </CharString>
          <CharString index="98">
            19 callsubr
            -6 return
          </CharString>
          <CharString index="99">
            hlineto
            53 25 7 callgsubr
          </CharString>
          <CharString index="100">
            -8 -26 vhcurveto
            return
          </CharString>
          <CharString index="101">
            319 callsubr
            563 136 vlineto
            endchar
          </CharString>
          <CharString index="102">
            vlineto
            -60 callsubr
            174 323 vlineto
            53 24 25 142 callgsubr
          </CharString>
          <CharString index="103">
            -38 callsubr
            -195 -62 callsubr
            442 -41 callgsubr
            195 -55 callgsubr
            return
          </CharString>
          <CharString index="104">
            -53 callgsubr
            201 -58 callgsubr
            return
          </CharString>
          <CharString index="105">
            hlineto
            -105 callsubr
            return
          </CharString>
          <CharString index="106">
            47 callsubr
            -2053 -77 callsubr
            824 vlineto
            -83 callsubr
            -156 252 callgsubr
            -36 callgsubr
            14 11 2 3 9 hvcurveto
            -32 300 callgsubr
            191 callgsubr
          </CharString>
          <CharString index="107">
            376 -8 callsubr
          </CharString>
          <CharString index="108">
            -329 -88 callsubr
            return
          </CharString>
          <CharString index="109">
            376 78 callsubr
            return
          </CharString>
          <CharString index="110">
            -59 538 -78 -347 134 callgsubr
            317 hlineto
            26 7 -7 -26 hvcurveto
            -70 22 callgsubr
            -259 219 callgsubr
            352 -64 callgsubr
            97 244 callgsubr
            return
          </CharString>
          <CharString index="111">
            -57 callsubr
            394 275 vlineto
            -609 -92 195 callsubr
            232 -92 vlineto
            -612 -334 -11 callgsubr
            1448 426 rmoveto
            59 -1943 200 callgsubr
            198 -256 hlineto
            -100 callsubr
            299 hlineto
            14 11 3 6 7 hvcurveto
            -87 -91 callgsubr
          </CharString>
          <CharString index="112">
            -75 callgsubr
            -210 -86 callsubr
            return
          </CharString>
          <CharString index="113">
            -107 callsubr
            142 59 -142 hlineto
            -26 -6 return
          </CharString>
          <CharString index="114">
            32 -4 -17 13 -41 hhcurveto
            return
          </CharString>
          <CharString index="115">
            -72 callsubr
            189 604 -280 1 callgsubr
          </CharString>
          <CharString index="116">
            rmoveto
            -25 -6 176 callgsubr
            -5 7 25 hvcurveto
            112 vlineto
            25 187 callsubr
            return
          </CharString>
          <CharString index="117">
            -81 callgsubr
            563 return
          </CharString>
          <CharString index="118">
            -6 -7 -26 vhcurveto
            return
          </CharString>
          <CharString index="119">
            -238 2 callgsubr
            189 hlineto
            -115 -156 313 callsubr
            113 167 rlineto
            -103 266 callsubr
            -81 vlineto
            -26 -8 -8 320 callsubr
            212 -107 callsubr
            return
          </CharString>
          <CharString index="120">
            rmoveto
            24 callgsubr
            return
          </CharString>
          <CharString index="121">
            88 callgsubr
            170 -138 return
          </CharString>
          <CharString index="122">
            0 -18 callsubr
            return
          </CharString>
          <CharString index="123">
            136 callsubr
            103 return
          </CharString>
          <CharString index="124">
            197 callsubr
            -28 vhcurveto
            -431 138 callsubr
            234 41 callsubr
            77 -40 callsubr
            return
          </CharString>
          <CharString index="125">
            rmoveto
            116 -47 callsubr
            -371 -2 callgsubr
            -464 -71 callgsubr
            371 196 callgsubr
            -273 -59 139 -171 -17 callgsubr
            -198 -62 callsubr
            442 -41 callgsubr
            197 -55 callgsubr
            -105 vlineto
            endchar
          </CharString>
          <CharString index="126">
            -75 callgsubr
            -215 hlineto
            -26 return
          </CharString>
          <CharString index="127">
            -7 96 callgsubr
            -127 vlineto
            -38 17 -16 117 callsubr
            -134 -88 callsubr
            return
          </CharString>
          <CharString index="128">
            -68 callsubr
            71 callgsubr
            return
          </CharString>
          <CharString index="129">
            -24 128 callsubr
            return
          </CharString>
          <CharString index="130">
            -26 -6 7 25 hvcurveto
            return
          </CharString>
          <CharString index="131">
            -39 callgsubr
            589 -17 callsubr
          </CharString>
          <CharString index="132">
            rmoveto
            -143 hlineto
            -139 -146 rlineto
            115 hlineto
            return
          </CharString>
          <CharString index="133">
            229 callsubr
            -5 vlineto
            -33 -1 -17 return
          </CharString>
          <CharString index="134">
            -98 callsubr
            -96 137 83 vlineto
            26 return
          </CharString>
          <CharString index="135">
            830 169 rmoveto
            -26 -7 161 callsubr
            7 -6 -26 hvcurveto
            -364 -225 rmoveto
            -26 -6 161 callsubr
            6 -6 -26 hvcurveto
            116 91 rmoveto
            -36 -15 -15 -30 -3 hvcurveto
            -4 hlineto
            7 callsubr
            -294 -64 callsubr
            58 callsubr
            294 hlineto
            41 17 13 32 4 hvcurveto
            4 hlineto
            -31 4 14 -14 36 hhcurveto
            302 -85 callgsubr
            251 -40 callsubr
            return
          </CharString>
          <CharString index="136">
            vlineto
            -66 callsubr
            -64 -93 callsubr
            323 -85 callsubr
            -64 -74 callsubr
            -254 53 -142 -190 142 78 346 -85 callgsubr
            90 -40 callsubr
            -323 -84 callgsubr
            38 -107 callsubr
            return
          </CharString>
          <CharString index="137">
            34 callgsubr
            -59 return
          </CharString>
          <CharString index="138">
            -93 callsubr
            387 -85 callgsubr
            return
          </CharString>
          <CharString index="139">
            -59 136 -485 hlineto
            -100 callsubr
            410 -85 callgsubr
            118 -138 -105 -74 callsubr
            -226 -84 callgsubr
            472 296 -188 22 callgsubr
            -120 -59 212 -85 callgsubr
            201 117 vlineto
            endchar
          </CharString>
          <CharString index="140">
            -90 callsubr
            225 48 callgsubr
            return
          </CharString>
          <CharString index="141">
            299 -68 callgsubr
          </CharString>
          <CharString index="142">
            -100 callsubr
            34 callsubr
          </CharString>
          <CharString index="143">
            -49 callsubr
            endchar
          </CharString>
          <CharString index="144">
            -105 callsubr
            179 -45 callgsubr
            return
          </CharString>
          <CharString index="145">
            145 callsubr
            -284 -84 callgsubr
            40 -107 callsubr
            return
          </CharString>
          <CharString index="146">
            hlineto
            -28 callsubr
            return
          </CharString>
          <CharString index="147">
            rmoveto
            115 -155 rlineto
            142 hlineto
            -117 155 rlineto
            return
          </CharString>
          <CharString index="148">
            vlineto
            53 25 24 53 hvcurveto
            return
          </CharString>
          <CharString index="149">
            rmoveto
            242 -55 callgsubr
            -219 -17 callgsubr
            -242 hlineto
            276 -282 rmoveto
            139 hlineto
            -141 223 rlineto
            53 196 callgsubr
            -47 callsubr
            -461 -622 134 223 140 hlineto
            endchar
          </CharString>
          <CharString index="150">
            158 callgsubr
            10 10 hvcurveto
            -10 108 callgsubr
          </CharString>
          <CharString index="151">
            -84 callgsubr
            99 6 callsubr
            6 26 hvcurveto
            140 vlineto
            26 6 -36 callsubr
            -25 -25 -53 hvcurveto
            -59 return
          </CharString>
          <CharString index="152">
            rmoveto
            -1409 -59 461 -238 hlineto
            -26 -6 -6 -26 vhcurveto
            -172 170 -138 -385 61 callsubr
          </CharString>
          <CharString index="153">
            hlineto
            -83 callsubr
            -210 244 callsubr
            return
          </CharString>
          <CharString index="154">
            -106 callsubr
            263 callgsubr
            return
          </CharString>
          <CharString index="155">
            rmoveto
            24 3 5 26 vhcurveto
            107 hlineto
            25 4 -5 -24 hvcurveto
            -17 vlineto
            -24 -4 -5 -25 vhcurveto
            -107 hlineto
            -26 -3 5 24 hvcurveto
            181 -79 rmoveto
            47 23 21 48 hvcurveto
            37 vlineto
            47 -23 23 -47 vhcurveto
            -198 hlineto
            -46 -23 -23 -47 hvcurveto
            -37 vlineto
            -48 23 -21 46 vhcurveto
            return
          </CharString>
          <CharString index="156">
            -64 callsubr
            -81 138 68 -107 callsubr
            173 65 callgsubr
            return
          </CharString>
          <CharString index="157">
            -90 callsubr
            188 vlineto
            71 292 callsubr
            337 -344 rlineto
            -4 -5 -8 -2 -12 hhcurveto
            return
          </CharString>
          <CharString index="158">
            -41 callsubr
            66 -126 -55 -17 callgsubr
            return
          </CharString>
          <CharString index="159">
            rmoveto
            101 91 -101 hlineto
            -713 226 rmoveto
            -59 495 -78 -307 vlineto
            -66 callsubr
            -85 278 callsubr
            26 6 -6 -26 hvcurveto
            -114 290 callgsubr
            69 -137 -82 31 callsubr
            140 148 callsubr
            59 228 callsubr
            351 137 261 59 hlineto
            endchar
          </CharString>
          <CharString index="160">
            202 callsubr
            24 25 53 hvcurveto
            270 return
          </CharString>
          <CharString index="161">
            339 rmoveto
            -203 hlineto
            -79 callgsubr
            214 hlineto
            -340 205 callgsubr
            return
          </CharString>
          <CharString index="162">
            -84 callgsubr
            31 -107 callsubr
            392 137 return
          </CharString>
          <CharString index="163">
            202 callsubr
            25 25 53 hvcurveto
            270 195 -33 callgsubr
          </CharString>
          <CharString index="164">
            643 907 393 rmoveto
            25 5 8 26 vhcurveto
            164 hlineto
            26 5 -8 -25 hvcurveto
            -101 vlineto
            -25 -8 -8 -19 vhcurveto
            -171 hlineto
            -20 -8 10 23 hvcurveto
            -255 271 rmoveto
            717 59 -1389 -59 535 -304 -58 hlineto
            -142 157 rlineto
            61 -56 -46 8 -81 hhcurveto
            -91 -61 23 hlineto
            49 42 -7 -48 45 hvcurveto
            122 -134 -263 -235 rlineto
            167 hlineto
            222 199 rlineto
            67 -199 137 199 return
          </CharString>
          <CharString index="165">
            -251 -88 callsubr
            return
          </CharString>
          <CharString index="166">
            71 callsubr
            631 468 rmoveto
            -1133 51 callgsubr
            390 197 -339 vlineto
            -329 -299 rlineto
            163 hlineto
            175 175 rlineto
            0 -5 -58 -47 vvcurveto
            -37 129 605 -35 callsubr
          </CharString>
          <CharString index="167">
            rmoveto
            306 callsubr
            -116 -52 -17 callgsubr
            -146 -62 callsubr
            52 -116 175 callsubr
            return
          </CharString>
          <CharString index="168">
            210 callgsubr
            539 -347 vlineto
            -28 -10 -10 -28 vhcurveto
            -215 hlineto
            -12 callsubr
            298 163 callgsubr
            137 vlineto
            endchar
          </CharString>
          <CharString index="169">
            26 vhcurveto
            195 -85 callsubr
            return
          </CharString>
          <CharString index="170">
            -95 callsubr
            274 184 callsubr
            return
          </CharString>
          <CharString index="171">
            -78 70 callgsubr
            return
          </CharString>
          <CharString index="172">
            26 6 6 62 callsubr
            return
          </CharString>
          <CharString index="173">
            179 callgsubr
            149 59 -781 150 callsubr
            167 hlineto
            -115 -156 rlineto
            147 269 callgsubr
            275 59 hlineto
            endchar
          </CharString>
          <CharString index="174">
            -76 122 callgsubr
            76 -131 -90 2 callgsubr
            return
          </CharString>
          <CharString index="175">
            530 66 callgsubr
            return
          </CharString>
          <CharString index="176">
            vlineto
            36 callgsubr
          </CharString>
          <CharString index="177">
            -77 callgsubr
            -159 vlineto
            14 callgsubr
            return
          </CharString>
          <CharString index="178">
            100 callgsubr
            166 156 callgsubr
            281 -198 hlineto
            -26 -5 -68 callsubr
            return
          </CharString>
          <CharString index="179">
            -52 callgsubr
            379 -41 callsubr
            543 return
          </CharString>
          <CharString index="180">
            356 1082 0 callgsubr
            -1102 -59 488 hlineto
            26 5 -61 callgsubr
            -153 vlineto
            -25 -5 -68 callsubr
            -230 85 237 callsubr
            24 25 53 hvcurveto
            133 -137 -120 -74 callsubr
            -190 -84 callgsubr
            197 322 107 callgsubr
            39 174 vlineto
            26 5 -8 -24 hvcurveto
            return
          </CharString>
          <CharString index="181">
            -251 12 callgsubr
          </CharString>
          <CharString index="182">
            vlineto
            -42 callsubr
            -59 21 callgsubr
            -154 -18 callgsubr
          </CharString>
          <CharString index="183">
            137 -47 callgsubr
          </CharString>
          <CharString index="184">
            -26 -6 6 25 hvcurveto
            97 6 callsubr
            7 26 hvcurveto
            128 6 callgsubr
            -99 118 112 238 callgsubr
            -147 208 callsubr
            -17 -37 vvcurveto
            -112 2 callgsubr
            return
          </CharString>
          <CharString index="185">
            -85 callgsubr
            270 return
          </CharString>
          <CharString index="186">
            vlineto
            -42 callsubr
            -78 95 callsubr
            -66 callgsubr
          </CharString>
          <CharString index="187">
            rmoveto
            -26 -6 -6 -26 vhcurveto
            -242 hlineto
            -26 -6 6 26 hvcurveto
            303 61 callgsubr
            127 callgsubr
          </CharString>
          <CharString index="188">
            100 callgsubr
            357 275 -355 vlineto
            -75 callgsubr
            203 297 195 callsubr
            150 59 -818 -59 122 -370 95 callgsubr
            378 vlineto
            26 8 8 26 vhcurveto
            245 59 hlineto
            endchar
          </CharString>
          <CharString index="189">
            -45 callgsubr
            -50 vlineto
            -26 -7 115 callsubr
          </CharString>
          <CharString index="190">
            -4 callgsubr
            -459 -316 vlineto
            -84 callsubr
            190 -270 -93 callsubr
            2 callsubr
            return
          </CharString>
          <CharString index="191">
            rmoveto
            -38 callsubr
            return
          </CharString>
          <CharString index="192">
            vlineto
            49 callgsubr
            return
          </CharString>
          <CharString index="193">
            hlineto
            -142 141 rlineto
            54 -57 -47 8 -76 hhcurveto
            -92 -61 22 hlineto
            44 42 -5 -44 47 hvcurveto
            131 -128 -270 -247 rlineto
            169 hlineto
            229 213 rlineto
            return
          </CharString>
          <CharString index="194">
            -59 120 -407 -88 callsubr
            return
          </CharString>
          <CharString index="195">
            30 18 10 21 8 hvcurveto
            return
          </CharString>
          <CharString index="196">
            -48 callgsubr
            378 -6 callsubr
          </CharString>
          <CharString index="197">
            -65 callgsubr
            -134 return
          </CharString>
          <CharString index="198">
            80 callgsubr
            59 return
          </CharString>
          <CharString index="199">
            304 -94 callsubr
            return
          </CharString>
          <CharString index="200">
            -426 267 callgsubr
            return
          </CharString>
          <CharString index="201">
            63 callsubr
            136 hlineto
            endchar
          </CharString>
          <CharString index="202">
            vlineto
            -53 24 -24 53 vhcurveto
            return
          </CharString>
          <CharString index="203">
            vlineto
            -20 callgsubr
            return
          </CharString>
          <CharString index="204">
            -100 callsubr
            183 hlineto
            -144 -179 313 callsubr
            144 190 rlineto
            -126 137 return
          </CharString>
          <CharString index="205">
            vlineto
            65 callsubr
            return
          </CharString>
          <CharString index="206">
            138 123 callsubr
          </CharString>
          <CharString index="207">
            235 137 rmoveto
            -59 callgsubr
            -505 426 rmoveto
            200 callsubr
            59 -772 vlineto
            return
          </CharString>
          <CharString index="208">
            -62 callsubr
            96 -134 -107 -71 callgsubr
            return
          </CharString>
          <CharString index="209">
            156 callsubr
            -2 -17 return
          </CharString>
          <CharString index="210">
            hlineto
            20 -53 23 -60 17 -49 22 -43 rlinecurve
            -6 hlineto
            -27 48 -32 44 -55 63 -43 50 rcurveline
            -139 hlineto
            138 -131 42 -40 28 -22 15 -12 rlinecurve
            return
          </CharString>
          <CharString index="211">
            -59 379 hlineto
            -23 callgsubr
            -292 return
          </CharString>
          <CharString index="212">
            53 callgsubr
            -167 95 callsubr
            252 hlineto
            -97 -164 rlineto
            134 hlineto
            74 143 71 -143 rlineto
            134 hlineto
            -93 164 rlineto
            223 144 callsubr
            324 vlineto
            return
          </CharString>
          <CharString index="213">
            -273 -451 hlineto
            -75 callgsubr
            return
          </CharString>
          <CharString index="214">
            -85 callgsubr
            76 -137 -63 -74 callsubr
            -237 -84 callgsubr
            132 156 callgsubr
            406 return
          </CharString>
          <CharString index="215">
            -40 callsubr
            -279 hlineto
            -57 callgsubr
            vlineto
            endchar
          </CharString>
          <CharString index="216">
            -35 268 callsubr
            return
          </CharString>
          <CharString index="217">
            vlineto
            48 -4 58 0 vhcurveto
            return
          </CharString>
          <CharString index="218">
            -42 callsubr
            89 callsubr
          </CharString>
          <CharString index="219">
            147 callsubr
            -133 -59 133 -85 callsubr
            -187 122 callgsubr
            115 -138 -128 -88 callsubr
            384 -85 callgsubr
            return
          </CharString>
          <CharString index="220">
            169 rmoveto
            -26 -5 -105 callgsubr
            236 hlineto
            599 196 rmoveto
            return
          </CharString>
          <CharString index="221">
            -154 vlineto
            -37 17 -17 34 -1 vhcurveto
            -4 vlineto
            -34 -1 -17 -17 -38 vvcurveto
            -110 -88 callsubr
            320 -94 callgsubr
            -54 137 415 -137 -95 -260 vlineto
            23 callsubr
            137 168 callsubr
          </CharString>
          <CharString index="222">
            -68 callsubr
            -278 -156 hlineto
            -53 25 91 callgsubr
            136 vlineto
            endchar
          </CharString>
          <CharString index="223">
            322 callsubr
            -326 vlineto
            -53 -24 -25 -53 hvcurveto
            -251 -26 callgsubr
            return
          </CharString>
          <CharString index="224">
            102 callsubr
            -17 -37 vvcurveto
            return
          </CharString>
          <CharString index="225">
            -40 callsubr
            -297 hlineto
            -26 return
          </CharString>
          <CharString index="226">
            -7 -68 callsubr
            return
          </CharString>
          <CharString index="227">
            298 237 237 rmoveto
            262 144 callsubr
            249 447 59 -1044 -59 461 -236 vlineto
            312 callsubr
            167 -138 -385 hlineto
            -86 callgsubr
            453 59 -359 18 callgsubr
            return
          </CharString>
          <CharString index="228">
            rmoveto
            -139 146 rlineto
            -143 hlineto
            167 -146 rlineto
            return
          </CharString>
          <CharString index="229">
            228 callsubr
            169 -85 callsubr
            return
          </CharString>
          <CharString index="230">
            563 136 hlineto
            endchar
          </CharString>
          <CharString index="231">
            rmoveto
            -21 callgsubr
            -242 hlineto
            -26 -6 6 26 hvcurveto
            303 285 callsubr
            return
          </CharString>
          <CharString index="232">
            -55 callgsubr
            -117 vlineto
            return
          </CharString>
          <CharString index="233">
            -395 rmoveto
            -25 -6 225 callsubr
            111 176 callsubr
            238 hlineto
            -717 -141 rmoveto
            -26 -5 -105 callgsubr
            236 hlineto
            return
          </CharString>
          <CharString index="234">
            498 168 9 callsubr
            return
          </CharString>
          <CharString index="235">
            -8 -9 -26 vhcurveto
            return
          </CharString>
          <CharString index="236">
            -59 122 -222 hlineto
            -37 26 callsubr
            -17 -38 vvcurveto
            return
          </CharString>
          <CharString index="237">
            rmoveto
            133 hlineto
            172 149 rlineto
            -135 hlineto
            -103 -96 -104 96 rlineto
            -135 hlineto
            return
          </CharString>
          <CharString index="238">
            -59 122 -222 hlineto
            237 callgsubr
            -147 vlineto
            -53 25 -25 53 vhcurveto
            return
          </CharString>
          <CharString index="239">
            -29 callgsubr
            143 262 vlineto
            105 callgsubr
            return
          </CharString>
          <CharString index="240">
            -59 94 227 callsubr
            -317 -93 callsubr
            208 279 callsubr
            return
          </CharString>
          <CharString index="241">
            -62 callsubr
            129 return
          </CharString>
          <CharString index="242">
            187 -47 callsubr
            endchar
          </CharString>
          <CharString index="243">
            -50 callsubr
            -299 -59 207 -85 callsubr
            -225 109 callgsubr
            return
          </CharString>
          <CharString index="244">
            297 callgsubr
            -204 203 callgsubr
            return
          </CharString>
          <CharString index="245">
            -84 callgsubr
            84 return
          </CharString>
          <CharString index="246">
            hlineto
            188 callsubr
            132 -58 callgsubr
            -222 -59 138 -85 callsubr
            -106 240 callsubr
            -246 139 callgsubr
            298 168 callsubr
          </CharString>
          <CharString index="247">
            -59 120 -407 hlineto
            181 callsubr
            return
          </CharString>
          <CharString index="248">
            -26 119 callsubr
            return
          </CharString>
          <CharString index="249">
            rmoveto
            -521 -59 368 hlineto
            -380 -504 rlineto
            -59 523 59 -371 vlineto
            381 504 rlineto
            endchar
          </CharString>
          <CharString index="250">
            439 -181 47 callgsubr
            109 -137 hlineto
            return
          </CharString>
          <CharString index="251">
            hlineto
            53 25 24 53 hvcurveto
            return
          </CharString>
          <CharString index="252">
            -66 -88 callsubr
            284 -85 callsubr
            -62 -74 callsubr
            -233 58 -142 -195 142 78 325 -85 callgsubr
            89 241 callgsubr
            return
          </CharString>
          <CharString index="253">
            -100 callsubr
            300 308 callsubr
            296 -138 -75 vlineto
            -26 -8 -7 320 callsubr
            175 168 callsubr
          </CharString>
          <CharString index="254">
            227 callgsubr
            -26 11 callsubr
            return
          </CharString>
          <CharString index="255">
            118 callsubr
            -7 6 26 hvcurveto
            return
          </CharString>
          <CharString index="256">
            -26 -5 -92 callsubr
            return
          </CharString>
          <CharString index="257">
            -59 495 -386 vlineto
            39 callgsubr
            -246 2 callgsubr
            return
          </CharString>
          <CharString index="258">
            hlineto
            -100 callsubr
            191 callgsubr
          </CharString>
          <CharString index="259">
            224 callgsubr
            hlineto
            endchar
          </CharString>
          <CharString index="260" raw="1">
            063c0a0b   
          </CharString>
          <CharString index="261">
            hlineto
            -29 callgsubr
            return
          </CharString>
          <CharString index="262">
            -107 callsubr
            237 hlineto
            return
          </CharString>
          <CharString index="263">
            33 -1 vhcurveto
            -4 vlineto
            -33 return
          </CharString>
          <CharString index="264">
            -24 -10 -9 -25 vhcurveto
            return
          </CharString>
          <CharString index="265">
            -59 493 hlineto
            26 5 -61 callgsubr
            -158 vlineto
            -25 -5 -68 callsubr
            -235 134 314 callgsubr
            383 59 -291 -84 callgsubr
            192 return
          </CharString>
          <CharString index="266">
            rmoveto
            -143 hlineto
            167 -146 rlineto
            115 hlineto
            endchar
          </CharString>
          <CharString index="267">
            -134 rmoveto
            -26 128 callsubr
            -109 -58 179 hlineto
            54 32 27 59 hvcurveto
            92 -122 vlineto
            return
          </CharString>
          <CharString index="268">
            -68 callsubr
            -179 -104 callgsubr
            179 hlineto
            26 return
          </CharString>
          <CharString index="269">
            186 callgsubr
            174 return
          </CharString>
          <CharString index="270">
            -322 -64 callsubr
            return
          </CharString>
          <CharString index="271">
            rmoveto
            308 callgsubr
            130 -356 rlineto
            66 309 callsubr
            -175 hlineto
            -240 -622 rlineto
            132 hlineto
            45 123 rlineto
            301 hlineto
            endchar
          </CharString>
          <CharString index="272">
            59 -408 -59 270 vlineto
            -284 -367 rlineto
            -59 426 59 return
          </CharString>
          <CharString index="273">
            563 rmoveto
            344 -206 hlineto
            -83 7 -70 0 vhcurveto
            -313 -67 100 callgsubr
            193 vlineto
            71 -8 61 0 vhcurveto
            340 -347 rlineto
            -7 -5 -9 -3 -15 hhcurveto
            return
          </CharString>
          <CharString index="274">
            42 callgsubr
            -29 vhcurveto
            -420 -61 callsubr
            224 -96 callsubr
            131 callgsubr
            return
          </CharString>
          <CharString index="275">
            -107 callsubr
            endchar
          </CharString>
          <CharString index="276">
            -133 hlineto
            -185 -333 -194 333 rlineto
            -134 hlineto
            return
          </CharString>
          <CharString index="277">
            173 callgsubr
            173 162 rlineto
            0 return
          </CharString>
          <CharString index="278">
            -402 217 hmoveto
            485 -129 -485 vlineto
            return
          </CharString>
          <CharString index="279">
            253 callsubr
            86 vlineto
            24 8 9 26 vhcurveto
            return
          </CharString>
          <CharString index="280">
            vhcurveto
            -215 73 callgsubr
            return
          </CharString>
          <CharString index="281">
            136 -75 callsubr
          </CharString>
          <CharString index="282">
            -61 -71 callgsubr
            return
          </CharString>
          <CharString index="283">
            vlineto
            25 -100 callgsubr
            return
          </CharString>
          <CharString index="284" raw="1">
            fb680656 0b  
          </CharString>
          <CharString index="285">
            137 378 -28 callgsubr
            return
          </CharString>
          <CharString index="286">
            119 callgsubr
            -91 return
          </CharString>
          <CharString index="287">
            -4 0 -717 hlineto
            -55 callsubr
            185 vlineto
            -42 callsubr
            return
          </CharString>
          <CharString index="288">
            -100 callsubr
            368 -65 callsubr
            return
          </CharString>
          <CharString index="289">
            40 13 5 26 vhcurveto
            49 295 callsubr
            1 -7 vhcurveto
            -3 7 -17 40 -32 43 -54 73 rcurveline
            -134 hlineto
            81 -104 return
          </CharString>
          <CharString index="290">
            rmoveto
            -25 -5 225 callsubr
            return
          </CharString>
          <CharString index="291">
            -426 137 563 return
          </CharString>
          <CharString index="292">
            -59 212 -563 134 563 213 return
          </CharString>
          <CharString index="293">
            vlineto
            -28 -10 -10 -28 vhcurveto
            -215 hlineto
            -26 -6 return
          </CharString>
          <CharString index="294">
            -32 callgsubr
            238 hlineto
            return
          </CharString>
          <CharString index="295">
            53 24 24 53 hvcurveto
            return
          </CharString>
          <CharString index="296">
            26 7 -87 callsubr
            return
          </CharString>
          <CharString index="297">
            -241 -93 callsubr
            271 hlineto
            -137 -154 rlineto
            142 hlineto
            134 165 rlineto
            -99 -60 callgsubr
          </CharString>
          <CharString index="298">
            100 callgsubr
            118 -107 callsubr
            180 59 -180 -84 callgsubr
            121 -107 callsubr
            return
          </CharString>
          <CharString index="299">
            235 212 callgsubr
            return
          </CharString>
          <CharString index="300">
            hlineto
            -52 -17 -21 -42 hvcurveto
            -4 hlineto
            42 -17 21 -52 vhcurveto
            return
          </CharString>
          <CharString index="301">
            -53 -22 -22 -53 hvcurveto
            -120 vlineto
            -53 22 -22 53 vhcurveto
            return
          </CharString>
          <CharString index="302">
            261 callsubr
            101 return
          </CharString>
          <CharString index="303">
            -649 hlineto
            -66 callsubr
            return
          </CharString>
          <CharString index="304">
            175 42 callgsubr
            return
          </CharString>
          <CharString index="305">
            -61 callsubr
            238 -91 callsubr
            202 hlineto
            263 callgsubr
            return
          </CharString>
          <CharString index="306">
            91 124 callsubr
            return
          </CharString>
          <CharString index="307">
            -70 callsubr
            98 return
          </CharString>
          <CharString index="308">
            -407 -88 callsubr
            243 callsubr
          </CharString>
          <CharString index="309">
            -65 callsubr
            382 hlineto
            53 return
          </CharString>
          <CharString index="310">
            179 callsubr
            138 return
          </CharString>
          <CharString index="311">
            -26 vhcurveto
            -196 -84 callgsubr
            return
          </CharString>
          <CharString index="312">
            90 84 callsubr
            return
          </CharString>
          <CharString index="313">
            215 callsubr
            endchar
          </CharString>
          <CharString index="314">
            hlineto
            -75 callgsubr
            -276 hlineto
            -26 -6 6 return
          </CharString>
          <CharString index="315">
            vlineto
            -38 26 callsubr
            return
          </CharString>
          <CharString index="316">
            -15 -3 -9 -6 -21 hhcurveto
            return
          </CharString>
          <CharString index="317">
            vlineto
            16 callgsubr
          </CharString>
          <CharString index="318">
            hlineto
            -54 callsubr
            270 return
          </CharString>
          <CharString index="319">
            hlineto
            26 5 -61 callgsubr
            -68 138 8 callgsubr
            return
          </CharString>
          <CharString index="320">
            265 callgsubr
            -337 246 rlineto
            285 59 return
          </CharString>
          <CharString index="321">
            47 callgsubr
            170 59 -816 322 callsubr
            -310 287 callsubr
            return
          </CharString>
          <CharString index="322">
            rmoveto
            -483 vlineto
            -303 483 rlineto
            -126 -622 123 485 hlineto
            307 -485 rlineto
            122 622 hlineto
            return
          </CharString>
          <CharString index="323">
            -706 16 827 rmoveto
            -192 hlineto
            -53 -25 -24 -53 hvcurveto
            -152 138 139 176 callsubr
            100 hlineto
            return
          </CharString>
          <CharString index="324">
            -61 callgsubr
            -205 137 205 -107 callsubr
            219 38 callgsubr
          </CharString>
          <CharString index="325">
            563 -134 -622 442 59 vlineto
            endchar
          </CharString>
          <CharString index="326">
            185 -47 callsubr
            return
          </CharString>
          <CharString index="327">
            23 callsubr
            109 vlineto
            return
          </CharString>
          <CharString index="328">
            -392 hlineto
            -75 callgsubr
            -185 -104 callgsubr
            169 59 return
          </CharString>
          <CharString index="329">
            240 callgsubr
            2 -7 vhcurveto
            -4 7 -16 40 -33 43 -54 73 rcurveline
            -134 hlineto
            82 -104 return
          </CharString>
          <CharString index="330">
            vlineto
            50 -22 27 -56 vhcurveto
            -336 hlineto
            -55 -23 -27 -50 hvcurveto
            -91 vlineto
            -29 4 -19 12 -10 vhcurveto
            -136 hlineto
            endchar
          </CharString>
          <CharString index="331">
            -88 callsubr
            530 hlineto
            17 12 4 9 7 hvcurveto
            return
          </CharString>
          <CharString index="332">
            176 callgsubr
            -6 7 25 hvcurveto
            return
          </CharString>
          <CharString index="333">
            -100 callsubr
            374 hlineto
            53 return
          </CharString>
          <CharString index="334">
            hlineto
            -8 96 callgsubr
            return
          </CharString>
          <CharString index="335">
            vlineto
            189 callsubr
            return
          </CharString>
          <CharString index="336">
            17 -17 33 -1 vhcurveto
            return
          </CharString>
          <CharString index="337">
            -23 callgsubr
            -284 -212 hlineto
            -86 callgsubr
            531 hlineto
            return
          </CharString>
          <CharString index="338">
            166 rmoveto
            -123 vlineto
            -75 callgsubr
            -226 hlineto
            -26 -6 7 24 hvcurveto
            94 -107 callsubr
            return
          </CharString>
          <CharString index="339">
            -37 callgsubr
            636 hmoveto
            59 return
          </CharString>
          <CharString index="340">
            -264 hlineto
            -35 -14 -16 -29 -5 hvcurveto
            -4 hlineto
            32 -3 -18 13 -41 hhcurveto
            -315 -64 callsubr
            return
          </CharString>
          <CharString index="341">
            100 callgsubr
            140 246 -91 callsubr
            return
          </CharString>
          <CharString index="342">
            54 642 426 rmoveto
            195 callgsubr
            vlineto
            -66 callsubr
            return
          </CharString>
          <CharString index="343">
            hlineto
            -100 callsubr
            -80 callgsubr
          </CharString>
          <CharString index="344">
            -138 -354 hlineto
            226 callsubr
            return
          </CharString>
          <CharString index="345">
            -563 -60 callgsubr
          </CharString>
          <CharString index="346">
            rmoveto
            -26 -5 6 25 hvcurveto
            34 vlineto
            114 return
          </CharString>
          <CharString index="347">
            vlineto
            229 callgsubr
            return
          </CharString>
          <CharString index="348">
            64 callsubr
            -134 return
          </CharString>
          <CharString index="349">
            -98 callsubr
            58 callsubr
            -42 callgsubr
            return
          </CharString>
          <CharString index="350">
            373 -64 callgsubr
            407 210 -563 76 callsubr
          </CharString>
          <CharString index="351">
            hlineto
            209 callsubr
            return
          </CharString>
          <CharString index="352">
            rmoveto
            -31 -18 -11 -23 -8 hvcurveto
            return
          </CharString>
          <CharString index="353">
            -2 callgsubr
            -105 -72 -59 72 -426 129 426 182 -426 129 return
          </CharString>
          <CharString index="354">
            485 vlineto
            endchar
          </CharString>
          <CharString index="355">
            -253 -195 267 callsubr
            return
          </CharString>
          <CharString index="356">
            -270 -304 278 -318 rlineto
            154 hlineto
            -283 318 273 304 rlineto
            return
          </CharString>
          <CharString index="357">
            -78 -139 45 callgsubr
            return
          </CharString>
          <CharString index="358">
            228 callgsubr
            69 143 return
          </CharString>
          <CharString index="359">
            47 callgsubr
            146 59 return
          </CharString>
          <CharString index="360">
            -26 -8 9 24 hvcurveto
            return
          </CharString>
          <CharString index="361">
            485 rmoveto
            92 callgsubr
            return
          </CharString>
          <CharString index="362">
            393 699 rmoveto
            -417 -835 rlineto
            120 hlineto
            417 835 rlineto
            endchar
          </CharString>
          <CharString index="363">
            -59 120 -390 hlineto
            -100 callsubr
            373 -64 callgsubr
            return
          </CharString>
          <CharString index="364">
            11 callgsubr
            68 callsubr
            return
          </CharString>
          <CharString index="365">
            516 270 callsubr
          </CharString>
          <CharString index="366">
            rmoveto
            47 hlineto
            95 198 rlineto
            65 -142 vlineto
            return
          </CharString>
          <CharString index="367">
            137 123 callsubr
          </CharString>
          <CharString index="368">
            rmoveto
            -14 -11 -3 -6 -7 hvcurveto
            return
          </CharString>
          <CharString index="369">
            -18 34 -1 vhcurveto
            -4 return
          </CharString>
          <CharString index="370">
            rmoveto
            169 callsubr
            262 return
          </CharString>
          <CharString index="371">
            197 callsubr
            -29 vhcurveto
            return
          </CharString>
          <CharString index="372">
            238 vlineto
            -50 callgsubr
            return
          </CharString>
          <CharString index="373">
            138 266 -138 return
          </CharString>
          <CharString index="374">
            213 callgsubr
            -59 return
          </CharString>
          <CharString index="375">
            -65 hlineto
            224 callgsubr
            return
          </CharString>
          <CharString index="376">
            -183 rmoveto
            68 callgsubr
            return
          </CharString>
          <CharString index="377">
            66 callgsubr
            136 vlineto
            endchar
          </CharString>
          <CharString index="378">
            -426 100 callgsubr
            394 return
          </CharString>
          <CharString index="379">
            -89 9 -46 0 vhcurveto
            return
          </CharString>
          <CharString index="380">
            hlineto
            26 5 293 callsubr
            return
          </CharString>
          <CharString index="381">
            530 rmoveto
            296 callgsubr
            return
          </CharString>
          <CharString index="382">
            rmoveto
            -99 156 99 vlineto
            121 hmoveto
            -99 155 99 vlineto
            endchar
          </CharString>
          <CharString index="383">
            194 0 callgsubr
            -46 hlineto
            -96 -199 rlineto
            -64 142 vlineto
            return
          </CharString>
          <CharString index="384">
            227 callsubr
            -239 -88 callsubr
            return
          </CharString>
          <CharString index="385">
            -93 callsubr
            298 hlineto
            return
          </CharString>
          <CharString index="386">
            59 -116 126 callgsubr
            return
          </CharString>
          <CharString index="387">
            -95 vlineto
            -75 callgsubr
            return
          </CharString>
          <CharString index="388">
            rmoveto
            -13 callgsubr
            return
          </CharString>
          <CharString index="389">
            -161 rlineto
            103 hlineto
            return
          </CharString>
          <CharString index="390">
            -29 -10 -9 -28 vhcurveto
            return
          </CharString>
          <CharString index="391">
            -71 callgsubr
            358 -41 callsubr
            return
          </CharString>
          <CharString index="392">
            -107 callsubr
            242 -85 callsubr
            return
          </CharString>
          <CharString index="393">
            126 callgsubr
            303 -25 callsubr
            return
          </CharString>
          <CharString index="394">
            45 callgsubr
            -324 2 callgsubr
            return
          </CharString>
          <CharString index="395">
            hlineto
            26 5 -61 callgsubr
            -131 vlineto
            -25 -5 -7 -26 vhcurveto
            return
          </CharString>
          <CharString index="396">
            hlineto
            -53 -24 -24 -53 hvcurveto
            -194 -93 callsubr
            return
          </CharString>
          <CharString index="397">
            vlineto
            24 11 9 24 vhcurveto
            166 -55 callgsubr
            return
          </CharString>
          <CharString index="398">
            45 callgsubr
            -195 35 callgsubr
            return
          </CharString>
          <CharString index="399">
            -6 59 0 vhcurveto
            return
          </CharString>
          <CharString index="400">
            -61 callgsubr
            -68 138 81 -40 callsubr
            return
          </CharString>
          <CharString index="401">
            -66 callsubr
            -192 -93 callsubr
            return
          </CharString>
          <CharString index="402">
            62 -86 hlineto
            240 callgsubr
            return
          </CharString>
          <CharString index="403">
            426 rmoveto
            300 callsubr
            return
          </CharString>
          <CharString index="404">
            426 306 callgsubr
            return
          </CharString>
          <CharString index="405">
            hlineto
            -115 10 -70 0 vhcurveto
            -9 return
          </CharString>
          <CharString index="406">
            96 227 callsubr
            return
          </CharString>
          <CharString index="407">
            137 138 59 return
          </CharString>
          <CharString index="408">
            -76 callsubr
            hlineto
            return
          </CharString>
          <CharString index="409">
            138 864 0 callgsubr
            -884 -59 611 return
          </CharString>
          <CharString index="410">
            4 729 0 callgsubr
            -749 -59 749 hlineto
            return
          </CharString>
          <CharString index="411">
            hlineto
            88 -104 51 -59 42 -35 26 -18 rlinecurve
            endchar
          </CharString>
          <CharString index="412">
            hlineto
            -53 -22 -22 -53 hvcurveto
            return
          </CharString>
          <CharString index="413">
            -37 callsubr
            61 return
          </CharString>
          <CharString index="414">
            -92 callsubr
            81 return
          </CharString>
          <CharString index="415">
            -94 callgsubr
            -138 138 return
          </CharString>
          <CharString index="416">
            -182 rmoveto
            132 hlineto
            -240 622 rlineto
            return
          </CharString>
          <CharString index="417">
            hlineto
            23 7 -8 -20 12 hvcurveto
            106 -183 rlineto
            return
          </CharString>
          <CharString index="418">
            105 -107 callsubr
            return
          </CharString>
          <CharString index="419">
            229 callgsubr
            -172 return
          </CharString>
          <CharString index="420">
            rlineto
            148 hlineto
            return
          </CharString>
          <CharString index="421">
            16 21 7 hvcurveto
            -21 6 17 -16 53 hhcurveto
            return
          </CharString>
          <CharString index="422">
            25 26 -18 19 -26 -25 -19 -19 -26 vhcurveto
            return
          </CharString>
          <CharString index="423">
            -179 39 vlineto
            76 127 rlineto
            52 vlineto
            return
          </CharString>
          <CharString index="424">
            128 callgsubr
            141 59 return
          </CharString>
          <CharString index="425">
            -59 133 hlineto
            -8 -5 -3 -10 -16 vvcurveto
            return
          </CharString>
          <CharString index="426">
            -94 callsubr
            138 return
          </CharString>
          <CharString index="427">
            -26 vhcurveto
            -209 139 callgsubr
            return
          </CharString>
          <CharString index="428">
            -24 callsubr
            -214 hlineto
            -26 -6 6 return
          </CharString>
          <CharString index="429">
            -59 508 -78 return
          </CharString>
        <CharString name=".notdef">
          46 174 hmoveto
          403 701 -403 hlineto
          62 -57 rmoveto
          280 -587 -280 hlineto
          endchar
        </CharString>
        <CharString name="A">
          1 223 182 -22 callsubr
        </CharString>
        <CharString name="AE">
          333 299 198 rmoveto
          230 341 rlineto
          -341 vlineto
          134 -139 rmoveto
          230 278 59 -278 215 312 59 -524 vlineto
          -428 -622 rlineto
          142 hlineto
          94 139 rlineto
          270 -139 459 59 hlineto
          endchar
        </CharString>
        <CharString name="Aacute">
          0 586 816 25 callsubr
          -197 -488 -22 callsubr
        </CharString>
        <CharString name="Abreve">
          0 493 669 60 callsubr
          11 -487 -22 callsubr
        </CharString>
        <CharString name="Acircumflex">
          0 352 765 rmoveto
          41 callgsubr
          -172 -149 rlineto
          135 hlineto
          -26 -487 -22 callsubr
        </CharString>
        <CharString name="Adieresis">
          0 570 768 202 callgsubr
          -70 -487 164 callsubr
        </CharString>
        <CharString name="Agrave">
          0 399 670 121 callsubr
          -61 -488 164 callsubr
        </CharString>
        <CharString name="Amacron">
          0 557 728 245 callgsubr
          -335 -488 -22 callsubr
        </CharString>
        <CharString name="Aogonek">
          0 222 182 rmoveto
          308 callgsubr
          130 -356 rlineto
          53 -365 rmoveto
          277 callgsubr
          5 hlineto
          -240 622 rlineto
          -176 hlineto
          -239 -622 rlineto
          131 hlineto
          45 123 rlineto
          302 hlineto
          45 -123 rlineto
          -35 -65 vlineto
          152 callsubr
        </CharString>
        <CharString name="Aring">
          0 270 766 48 callsubr
          -31 -488 -22 callsubr
        </CharString>
        <CharString name="Atilde">
          0 239 725 rmoveto
          14 5 8 13 vhcurveto
          -12 callgsubr
          vlineto
          -17 -487 -22 callsubr
        </CharString>
        <CharString name="B">
          -1 89 0 callgsubr
          -622 457 vlineto
          -37 callsubr
          174 vlineto
          37 -17 17 -33 4 vhcurveto
          33 2 17 21 36 vvcurveto
          173 -47 callsubr
          -51 -535 rmoveto
          -22 119 callsubr
          -239 223 241 -55 callgsubr
          121 vmoveto
          -38 callsubr
          -241 222 241 -55 callgsubr
          endchar
        </CharString>
        <CharString name="C">
          -42 608 407 -13 callsubr
        </CharString>
        <CharString name="CR">
          -432 endchar
        </CharString>
        <CharString name="Cacute">
          -47 564 816 25 callsubr
          209 -263 -13 callsubr
        </CharString>
        <CharString name="Ccaron">
          -47 410 669 -15 callsubr
          329 -262 -13 callsubr
        </CharString>
        <CharString name="Ccedilla">
          -47 274 160 callsubr
          332 456 -13 callsubr
        </CharString>
        <CharString name="D">
          1 493 205 callsubr
          -239 504 239 -55 callgsubr
          -404 90 rmoveto
          -622 459 vlineto
          143 callgsubr
        </CharString>
        <CharString name="Dcaron">
          3 414 669 -15 callsubr
          215 -579 84 callsubr
          -239 504 239 -55 callgsubr
          -404 90 rmoveto
          -622 459 vlineto
          143 callgsubr
        </CharString>
        <CharString name="Dcroat">
          50 539 205 callsubr
          -237 224 168 61 -168 219 237 -55 callgsubr
          -403 90 rmoveto
          -278 -59 -61 59 -283 458 vlineto
          143 callgsubr
        </CharString>
        <CharString name="E">
          -104 227 59 rmoveto
          230 55 callgsubr
          vlineto
          endchar
        </CharString>
        <CharString name="Eacute">
          -106 552 815 25 callsubr
          -159 -610 rmoveto
          230 55 callgsubr
          vlineto
          endchar
        </CharString>
        <CharString name="Ecaron">
          -106 398 669 -15 callsubr
          -39 -380 rmoveto
          55 callgsubr
          -332 hlineto
          endchar
        </CharString>
        <CharString name="Ecircumflex">
          -106 322 765 rmoveto
          41 callgsubr
          -172 -149 rlineto
          135 hlineto
          8 -380 rmoveto
          55 callgsubr
          -332 hlineto
          endchar
        </CharString>
        <CharString name="Edieresis">
          -86 533 768 202 callgsubr
          -30 -610 rmoveto
          230 55 callgsubr
          vlineto
          endchar
        </CharString>
        <CharString name="Edotaccent">
          -106 406 775 281 callgsubr
          -180 -611 rmoveto
          230 55 callgsubr
          vlineto
          endchar
        </CharString>
        <CharString name="Egrave">
          -106 381 669 121 callsubr
          -40 -610 rmoveto
          230 55 callgsubr
          vlineto
          endchar
        </CharString>
        <CharString name="Emacron">
          -106 521 727 245 callgsubr
          -295 -610 rmoveto
          230 55 callgsubr
          vlineto
          endchar
        </CharString>
        <CharString name="Eogonek">
          -106 417 269 callsubr
          148 -332 230 277 59 -277 215 318 59 -456 -622 343 109 callsubr
          hlineto
          endchar
        </CharString>
        <CharString name="Eth">
          15 508 205 callsubr
          -237 224 169 61 -169 219 237 -55 callgsubr
          -402 90 rmoveto
          -278 -59 -61 59 -283 458 vlineto
          143 callgsubr
        </CharString>
        <CharString name="Euro">
          -2 651 407 rmoveto
          136 -47 callsubr
          -370 -2 callgsubr
          -138 -90 -59 90 -69 -90 -59 90 -139 -71 callgsubr
          370 -41 callsubr
          136 -135 -125 -17 callgsubr
          -196 -62 callsubr
          128 155 59 -155 69 155 59 -155 127 -41 callgsubr
          196 -55 callgsubr
          -125 vlineto
          endchar
        </CharString>
        <CharString name="F">
          -131 546 563 rmoveto
          59 -457 -622 138 265 280 59 -280 239 vlineto
          endchar
        </CharString>
        <CharString name="G">
          -26 609 427 18 callsubr
        </CharString>
        <CharString name="Gbreve">
          -30 479 669 60 callsubr
          410 -242 18 callsubr
        </CharString>
        <CharString name="H">
          49 532 0 callgsubr
          -281 -309 281 -134 -622 134 282 309 -282 134 622 vlineto
          endchar
        </CharString>
        <CharString name="I">
          -374 97 0 callgsubr
          -622 138 622 vlineto
          endchar
        </CharString>
        <CharString name="Iacute">
          194 callgsubr
          -120 47 76 callgsubr
          endchar
        </CharString>
        <CharString name="Icircumflex">
          194 callgsubr
          -302 48 rmoveto
          135 hlineto
          104 96 41 callgsubr
          endchar
        </CharString>
        <CharString name="Idieresis">
          -383 95 0 callgsubr
          -622 137 622 vlineto
          -284 146 rmoveto
          -99 155 99 vlineto
          122 hmoveto
          -99 155 99 vlineto
          endchar
        </CharString>
        <CharString name="Idotaccent">
          -399 88 523 rmoveto
          -523 136 523 vlineto
          -141 152 rmoveto
          -105 144 105 vlineto
          endchar
        </CharString>
        <CharString name="Igrave">
          194 callgsubr
          -158 193 159 callsubr
        </CharString>
        <CharString name="Imacron">
          194 callgsubr
          -265 47 261 callgsubr
          endchar
        </CharString>
        <CharString name="Iogonek">
          -383 88 269 callsubr
          89 3 622 -138 -622 8 109 callsubr
          hlineto
          endchar
        </CharString>
        <CharString name="J">
          -97 34 227 rmoveto
          -148 -71 callgsubr
          337 -41 callsubr
          543 -134 -532 -17 callgsubr
          -164 -62 callsubr
          137 vlineto
          endchar
        </CharString>
        <CharString name="K">
          -13 510 0 callgsubr
          249 callsubr
          -573 hmoveto
          -622 131 622 vlineto
          endchar
        </CharString>
        <CharString name="L">
          -150 223 59 rmoveto
          218 callsubr
        </CharString>
        <CharString name="Lacute">
          -154 389 815 25 callsubr
          -610 vmoveto
          218 callsubr
        </CharString>
        <CharString name="Lcaron">
          -154 222 670 -15 callsubr
          133 -611 rmoveto
          218 callsubr
        </CharString>
        <CharString name="Lslash">
          -147 226 59 rmoveto
          230 vlineto
          162 54 rlineto
          63 vlineto
          -162 -54 rlineto
          270 -134 -315 vlineto
          -123 -41 rlineto
          -63 vlineto
          123 41 rlineto
          -244 442 59 vlineto
          endchar
        </CharString>
        <CharString name="M">
          181 491 135 rmoveto
          188 348 rlineto
          -483 119 622 -143 vlineto
          -215 -397 -207 397 rlineto
          -144 -622 119 483 hlineto
          183 -348 rlineto
          endchar
        </CharString>
        <CharString name="N">
          24 518 124 callgsubr
          endchar
        </CharString>
        <CharString name="NULL">
          -706 endchar
        </CharString>
        <CharString name="Nacute">
          22 316 668 76 callgsubr
          62 -192 206 callsubr
        </CharString>
        <CharString name="Ncaron">
          22 304 669 130 callsubr
          385 -196 206 callsubr
        </CharString>
        <CharString name="Ntilde">
          22 517 124 callgsubr
          -376 126 rmoveto
          -12 callgsubr
          56 vlineto
          14 5 8 13 vhcurveto
          endchar
        </CharString>
        <CharString name="O">
          -22 604 543 36 callsubr
        </CharString>
        <CharString name="OE">
          264 475 90 rmoveto
          -26 -5 -5 280 callgsubr
          5 26 hvcurveto
          442 -41 callgsubr
          199 -55 callgsubr
          137 -473 rmoveto
          230 260 59 -260 215 295 59 -398 -14 vlineto
          9 -15 -20 5 -26 hhcurveto
          -289 -2 callgsubr
          -464 -71 callgsubr
          289 hlineto
          26 20 5 9 15 hvcurveto
          -14 410 59 vlineto
          endchar
        </CharString>
        <CharString name="Oacute">
          -23 294 669 76 callgsubr
          170 -272 36 callsubr
        </CharString>
        <CharString name="Ocircumflex">
          -23 103 669 rmoveto
          135 hlineto
          104 96 41 callgsubr
          328 -275 36 callsubr
        </CharString>
        <CharString name="Odieresis">
          -30 603 543 -49 callsubr
          -67 237 rmoveto
          -100 156 100 vlineto
          -432 hmoveto
          -100 155 100 vlineto
          endchar
        </CharString>
        <CharString name="Ograve">
          -23 603 543 -49 callsubr
          -206 283 159 callsubr
        </CharString>
        <CharString name="Ohungarumlaut">
          -30 316 callgsubr
          -464 -71 callgsubr
          366 286 callgsubr
          -54 -90 rmoveto
          -442 vlineto
          -4 callsubr
          -133 298 rmoveto
          -146 282 callsubr
          174 161 rlineto
          95 hmoveto
          -148 -161 rlineto
          102 hlineto
          177 161 rlineto
          endchar
        </CharString>
        <CharString name="Omacron">
          -23 141 670 261 callgsubr
          462 -185 36 callsubr
        </CharString>
        <CharString name="Oslash">
          3 493 88 rmoveto
          -26 -5 -5 -27 vhcurveto
          -215 hlineto
          -17 -8 2 8 -3 hvcurveto
          275 379 rlineto
          -278 88 253 callgsubr
          215 hlineto
          20 8 -3 -11 3 hvcurveto
          -277 -379 rlineto
          426 477 rmoveto
          -78 hlineto
          -20 -27 rlineto
          0 -377 vlineto
          -35 callgsubr
          -464 vlineto
          -25 6 -20 12 -13 vhcurveto
          -35 -48 rlineto
          79 hlineto
          20 27 rlineto
          374 -41 callsubr
          464 vlineto
          25 -6 18 -11 14 vhcurveto
          endchar
        </CharString>
        <CharString name="Otilde">
          -23 603 543 -49 callsubr
          -233 216 rmoveto
          -12 callgsubr
          56 vlineto
          14 5 8 13 vhcurveto
          endchar
        </CharString>
        <CharString name="P">
          -26 495 293 84 callsubr
          -241 301 241 -55 callgsubr
          -406 90 rmoveto
          -622 134 203 326 vlineto
          -37 callsubr
          261 -47 callsubr
          endchar
        </CharString>
        <CharString name="Q">
          -50 198 532 253 callgsubr
          198 -55 callgsubr
          -442 -17 callgsubr
          -198 -62 callsubr
          396 -187 rmoveto
          -119 97 rlineto
          35 286 callgsubr
          -365 -2 callgsubr
          -464 -71 callgsubr
          179 hlineto
          113 -97 rlineto
          endchar
        </CharString>
        <CharString name="R">
          -6 223 563 42 callsubr
        </CharString>
        <CharString name="Racute">
          -8 570 814 25 callsubr
          -181 -105 42 callsubr
        </CharString>
        <CharString name="Rcaron">
          -8 419 667 -15 callsubr
          -64 -104 42 callsubr
        </CharString>
        <CharString name="S">
          -45 457 90 56 callgsubr
        </CharString>
        <CharString name="Sacute">
          -46 284 668 76 callgsubr
          34 -724 56 callgsubr
        </CharString>
        <CharString name="Scaron">
          -46 268 667 130 callsubr
          361 -726 56 callgsubr
        </CharString>
        <CharString name="T">
          -130 568 622 207 callgsubr
        </CharString>
        <CharString name="Tcaron">
          -129 356 667 -15 callsubr
          346 -45 207 callgsubr
        </CharString>
        <CharString name="Thorn">
          -26 486 192 84 callsubr
          -232 300 232 -55 callgsubr
          -263 90 rmoveto
          102 -133 -622 133 102 317 vlineto
          -37 callsubr
          260 -47 callsubr
          endchar
        </CharString>
        <CharString name="U">
          -9 214 622 84 callgsubr
        </CharString>
        <CharString name="Uacute">
          -8 296 669 76 callgsubr
          -221 -193 84 callgsubr
        </CharString>
        <CharString name="Ucircumflex">
          -8 109 669 rmoveto
          135 hlineto
          104 96 41 callgsubr
          -67 -196 84 callgsubr
        </CharString>
        <CharString name="Udieresis">
          -8 484 0 callgsubr
          52 callgsubr
          532 -134 -543 vlineto
          72 callsubr
          vlineto
          -488 146 275 callsubr
        </CharString>
        <CharString name="Ugrave">
          -8 214 622 -15 callgsubr
          65 725 159 callsubr
        </CharString>
        <CharString name="Uhungarumlaut">
          -17 214 622 -15 callgsubr
          347 738 rmoveto
          -149 282 callsubr
          176 161 rlineto
          -356 hmoveto
          -146 282 callsubr
          173 161 rlineto
          endchar
        </CharString>
        <CharString name="Umacron">
          -8 214 622 -15 callgsubr
          -68 579 261 callgsubr
          endchar
        </CharString>
        <CharString name="Uogonek">
          -8 484 0 callgsubr
          52 callgsubr
          532 -134 -543 -71 callgsubr
          124 109 callsubr
          -163 hlineto
          277 callgsubr
          128 -41 callsubr
          543 vlineto
          endchar
        </CharString>
        <CharString name="Uring">
          -8 522 776 120 callgsubr
          -222 -144 84 callgsubr
        </CharString>
        <CharString name="V">
          -3 539 0 callgsubr
          -189 -532 -186 532 rlineto
          -136 hlineto
          237 -622 rlineto
          172 hlineto
          237 622 rlineto
          endchar
        </CharString>
        <CharString name="W">
          374 920 0 callgsubr
          -161 -528 -151 528 rlineto
          -138 hlineto
          -151 -528 -154 528 rlineto
          -136 hlineto
          206 -622 rlineto
          167 hlineto
          137 479 138 -479 rlineto
          167 hlineto
          207 622 rlineto
          endchar
        </CharString>
        <CharString name="X">
          -19 417 321 rmoveto
          226 301 rlineto
          -141 hlineto
          -160 -223 -162 223 rlineto
          -146 hlineto
          233 -308 -242 -314 rlineto
          141 hlineto
          176 237 174 -237 rlineto
          145 hlineto
          endchar
        </CharString>
        <CharString name="Y">
          -46 653 622 263 callsubr
          -420 rlineto
          -202 134 203 vlineto
          endchar
        </CharString>
        <CharString name="Yacute">
          -47 570 815 25 callsubr
          249 258 callgsubr
          -420 rlineto
          -202 134 203 vlineto
          endchar
        </CharString>
        <CharString name="Ydieresis">
          -46 275 768 rmoveto
          -156 -99 156 hlineto
          276 99 rmoveto
          -155 -99 155 hlineto
          102 258 callgsubr
          -419 rlineto
          -203 134 204 vlineto
          endchar
        </CharString>
        <CharString name="Z">
          -70 585 622 142 callsubr
        </CharString>
        <CharString name="Zacute">
          -71 559 815 25 callsubr
          192 140 callgsubr
        </CharString>
        <CharString name="Zcaron">
          -71 395 669 -15 callsubr
          322 140 callgsubr
        </CharString>
        <CharString name="Zdotaccent">
          -71 407 774 281 callgsubr
          177 140 callgsubr
        </CharString>
        <CharString name="a">
          -64 232 59 -78 callgsubr
        </CharString>
        <CharString name="aacute">
          -66 547 678 25 callsubr
          -150 -473 -78 callgsubr
        </CharString>
        <CharString name="abreve">
          -66 459 532 60 callsubr
          53 -473 -78 callgsubr
        </CharString>
        <CharString name="acircumflex">
          -66 319 628 rmoveto
          41 callgsubr
          -172 -149 rlineto
          135 hlineto
          15 -473 -78 callgsubr
        </CharString>
        <CharString name="acute">
          -77 169 506 76 callgsubr
          endchar
        </CharString>
        <CharString name="adieresis">
          -66 539 631 rmoveto
          -155 -99 155 hlineto
          -276 99 rmoveto
          -156 -99 156 hlineto
          -33 -473 -78 callgsubr
        </CharString>
        <CharString name="ae">
          279 231 59 307 callgsubr
          77 vlineto
          218 48 rlineto
          -126 vlineto
          -24 -10 -6 -23 vhcurveto
          366 367 rmoveto
          -38 callgsubr
          -117 -237 117 -41 callgsubr
          325 -207 rmoveto
          2 8 219 callsubr
          -273 hlineto
          -53 -17 -16 -21 -6 hvcurveto
          21 -7 -22 16 -55 hhcurveto
          -247 -2 callgsubr
          -98 129 88 -41 callgsubr
          154 hlineto
          23 10 -7 -24 hvcurveto
          -117 vlineto
          -347 -78 rlineto
          -122 -71 callgsubr
          247 hlineto
          55 22 314 callsubr
          271 -41 callsubr
          65 -127 -54 -17 callgsubr
          -173 134 callsubr
          vlineto
          endchar
        </CharString>
        <CharString name="agrave">
          -66 393 532 121 callsubr
          -48 -473 -78 callgsubr
        </CharString>
        <CharString name="amacron">
          -66 512 593 245 callgsubr
          -282 -476 -78 callgsubr
        </CharString>
        <CharString name="ampersand">
          146 230 59 307 callgsubr
          66 vlineto
          30 9 14 31 12 vhcurveto
          84 31 221 -184 rlineto
          -269 473 253 callgsubr
          171 -55 callgsubr
          -92 vlineto
          -37 -17 -17 -46 -16 vhcurveto
          -84 -31 rlineto
          -60 50 -26 18 46 vvcurveto
          546 -498 rmoveto
          -64 54 rlineto
          26 13 14 26 38 vvcurveto
          145 -105 -141 vlineto
          -11 -1 -8 -3 -5 vhcurveto
          -258 216 106 39 rlineto
          67 25 33 32 72 vvcurveto
          93 -47 callsubr
          -331 -2 callgsubr
          -100 vlineto
          -60 39 -27 63 -52 vhcurveto
          5 -4 -98 -36 rlineto
          -64 -22 -22 -23 -56 vvcurveto
          -84 -71 callgsubr
          466 hlineto
          54 -45 rlineto
          endchar
        </CharString>
        <CharString name="aogonek">
          -66 230 59 -43 callsubr
          21 -242 rmoveto
          277 callgsubr
          2 485 -129 -31 hlineto
          21 -8 -18 10 -30 hhcurveto
          -226 hlineto
          -53 -26 -26 -53 hvcurveto
          -327 87 callgsubr
          -66 -65 vlineto
          152 callsubr
        </CharString>
        <CharString name="approxequal">
          85 196 327 rmoveto
          24 3 13 7 33 113 63 -100 103 hhcurveto
          71 hlineto
          -23 -3 -14 -9 -32 -114 -44 101 -119 hhcurveto
          452 97 rmoveto
          -126 -60 hlineto
          -30 -13 -11 -36 vhcurveto
          -114 -44 101 -119 hhcurveto
          -121 hlineto
          -55 -23 -28 -49 hvcurveto
          -88 vlineto
          0 vlineto
          -9 vlineto
          -88 126 60 vlineto
          30 13 10 36 vhcurveto
          113 63 -101 103 hhcurveto
          119 hlineto
          54 24 29 49 hvcurveto
          88 vlineto
          0 vlineto
          8 vlineto
          endchar
        </CharString>
        <CharString name="aring">
          -66 235 629 48 callsubr
          12 -474 -78 callgsubr
        </CharString>
        <CharString name="asciicircum">
          -56 248 668 rmoveto
          -205 -340 rlineto
          126 hlineto
          156 264 156 -264 rlineto
          126 hlineto
          -205 340 rlineto
          endchar
        </CharString>
        <CharString name="asciitilde">
          82 244 267 rmoveto
          113 62 -100 104 hhcurveto
          118 hlineto
          55 24 29 48 hvcurveto
          89 -127 -60 vlineto
          -30 -12 -11 -37 vhcurveto
          -113 -44 101 -119 hhcurveto
          -122 hlineto
          -54 -23 -28 -49 hvcurveto
          -89 126 60 vlineto
          31 12 9 37 vhcurveto
          endchar
        </CharString>
        <CharString name="asterisk">
          -205 202 655 rmoveto
          -64 vlineto
          -27 4 -24 6 -20 vhcurveto
          -18 13 -22 12 -26 9 -60 19 rcurveline
          -32 -97 61 -19 rlineto
          -8 23 25 -4 23 hhcurveto
          -17 -13 -20 -17 -16 -23 -37 -50 rcurveline
          82 -60 37 51 16 22 11 23 7 19 rlinecurve
          7 -20 11 -24 15 -22 38 -52 rcurveline
          82 60 -37 51 -16 22 -18 17 -16 13 rlinecurve
          21 25 3 8 26 hvcurveto
          61 20 -32 97 -60 -20 -25 -9 -22 -12 -18 -12 rlinecurve
          7 21 5 25 28 vvcurveto
          64 vlineto
          endchar
        </CharString>
        <CharString name="at">
          420 409 426 rmoveto
          -49 -23 -24 -48 hvcurveto
          -204 vlineto
          -48 23 -24 49 vhcurveto
          188 hlineto
          30 23 11 29 4 hvcurveto
          -59 327 vlineto
          48 24 24 48 hvcurveto
          360 vlineto
          48 -24 24 -48 vhcurveto
          -827 hlineto
          -49 -23 -24 -48 hvcurveto
          -490 vlineto
          -49 23 -23 49 vhcurveto
          717 60 -649 hlineto
          -24 -4 4 24 hvcurveto
          457 vlineto
          23 4 6 24 vhcurveto
          691 hlineto
          24 4 -6 -23 hvcurveto
          -328 vlineto
          -24 -4 -4 -24 vhcurveto
          -152 308 -112 -29 hlineto
          20 -8 -18 9 -26 hhcurveto
          -148 -87 rmoveto
          23 4 5 24 vhcurveto
          140 hlineto
          21 10 -8 -22 1 hvcurveto
          -170 vlineto
          -23 -1 -10 -7 -21 hhcurveto
          -140 hlineto
          -24 -4 4 24 hvcurveto
          endchar
        </CharString>
        <CharString name="atilde">
          -66 198 589 rmoveto
          14 5 8 13 vhcurveto
          -12 callgsubr
          vlineto
          32 -474 -78 callgsubr
        </CharString>
        <CharString name="b">
          -64 442 205 callsubr
          -166 hlineto
          -24 -11 9 24 hvcurveto
          25 -1 244 1 32 239 callgsubr
          218 -129 -669 129 34 vlineto
          -23 8 18 -11 31 hhcurveto
          226 285 callgsubr
          endchar
        </CharString>
        <CharString name="backslash">
          -283 -82 699 rmoveto
          416 -835 rlineto
          120 hlineto
          -417 835 rlineto
          endchar
        </CharString>
        <CharString name="bar">
          -404 90 750 rmoveto
          -879 122 879 vlineto
          endchar
        </CharString>
        <CharString name="braceleft">
          -291 302 597 rmoveto
          41 8 23 39 vhcurveto
          98 59 -131 hlineto
          -102 -45 -36 -99 hvcurveto
          -203 vlineto
          -72 -26 -32 -64 vhcurveto
          -16 -59 16 hlineto
          64 26 -31 -71 hvcurveto
          -204 vlineto
          -99 45 -35 102 vhcurveto
          131 59 -98 hlineto
          -39 -8 23 41 hvcurveto
          223 vlineto
          69 -27 49 -57 5 vhcurveto
          57 5 27 48 70 vvcurveto
          endchar
        </CharString>
        <CharString name="braceright">
          -286 118 371 rmoveto
          -70 27 -48 57 -5 vhcurveto
          -57 -5 -27 -49 -69 vvcurveto
          -223 vlineto
          -41 -8 -23 -38 vhcurveto
          -99 -59 131 hlineto
          103 44 35 99 hvcurveto
          204 vlineto
          71 26 31 65 vhcurveto
          15 59 -15 hlineto
          -65 -26 32 72 hvcurveto
          203 vlineto
          99 -44 36 -103 vhcurveto
          -131 -59 99 hlineto
          38 8 -23 -41 hvcurveto
          endchar
        </CharString>
        <CharString name="bracketleft">
          -366 378 661 rmoveto
          59 -291 -940 291 59 -156 822 vlineto
          endchar
        </CharString>
        <CharString name="bracketright">
          -366 253 720 rmoveto
          -291 -59 156 -822 -156 -59 291 hlineto
          endchar
        </CharString>
        <CharString name="breve">
          -77 418 649 rmoveto
          -52 -17 callgsubr
          -146 -62 callsubr
          52 -116 175 callsubr
          282 hlineto
          306 callsubr
          vlineto
          endchar
        </CharString>
        <CharString name="brokenbar">
          -418 83 250 rmoveto
          -379 122 379 vlineto
          121 vmoveto
          379 -122 -379 vlineto
          endchar
        </CharString>
        <CharString name="bullet">
          -240 233 450 rmoveto
          -85 -71 -59 -74 -72 71 -60 85 86 70 60 72 74 -70 59 -86 hvcurveto
          endchar
        </CharString>
        <CharString name="c">
          -102 551 320 -10 callsubr
        </CharString>
        <CharString name="cacute">
          -106 543 678 25 callsubr
          173 -212 -10 callsubr
        </CharString>
        <CharString name="caron">
          -77 248 503 130 callsubr
          endchar
        </CharString>
        <CharString name="ccaron">
          -106 371 532 -15 callsubr
          311 -212 -10 callsubr
        </CharString>
        <CharString name="ccedilla">
          -106 248 160 callsubr
          301 369 -10 callsubr
        </CharString>
        <CharString name="cedilla">
          -77 321 160 callsubr
          endchar
        </CharString>
        <CharString name="cent">
          -106 549 320 rmoveto
          86 -47 callsubr
          -98 77 -129 -77 -95 hlineto
          -63 callsubr
          95 -77 129 77 98 -41 callsubr
          85 -127 -74 -17 callgsubr
          -162 13 callgsubr
          162 -55 callgsubr
          -75 vlineto
          endchar
        </CharString>
        <CharString name="circumflex">
          -77 76 506 rmoveto
          135 hlineto
          104 96 41 callgsubr
          endchar
        </CharString>
        <CharString name="colon">
          -446 59 366 rmoveto
          -247 142 247 vlineto
          endchar
        </CharString>
        <CharString name="comma">
          -455 59 -138 rmoveto
          47 hlineto
          95 198 rlineto
          72 -142 vlineto
          endchar
        </CharString>
        <CharString name="commaaccent">
          -77 247 -239 141 callgsubr
        </CharString>
        <CharString name="copyright">
          351 980 341 rmoveto
          181 -67 100 -195 vhcurveto
          -380 hlineto
          -194 -67 -100 -181 hvcurveto
          -65 vlineto
          -182 67 -94 194 vhcurveto
          380 hlineto
          195 67 94 182 hvcurveto
          -624 -216 rmoveto
          -126 -40 78 131 hvcurveto
          78 vlineto
          131 40 86 126 vhcurveto
          345 hlineto
          126 40 -86 -131 hvcurveto
          -78 vlineto
          -131 -40 -78 -126 vhcurveto
          -79 180 84 callsubr
          -124 -62 callsubr
          151 -41 callgsubr
          124 -55 callgsubr
          -31 103 42 -47 callsubr
          -234 -2 callgsubr
          -173 -71 callgsubr
          234 -41 callsubr
          42 -103 vlineto
          endchar
        </CharString>
        <CharString name="currency">
          40 281 169 rmoveto
          -50 -16 6 51 hvcurveto
          137 vlineto
          51 16 14 50 vhcurveto
          189 hlineto
          49 17 -14 -51 hvcurveto
          -137 vlineto
          -51 -17 -6 -49 vhcurveto
          171 205 rmoveto
          20 -3 17 -5 15 vhcurveto
          50 49 -73 74 -65 -64 rlineto
          1 -11 -11 1 -13 hhcurveto
          -270 hlineto
          -14 -13 -1 -1 -11 hvcurveto
          -66 64 -73 -74 53 -52 rlineto
          -5 -14 -2 -17 -18 vvcurveto
          -152 vlineto
          -18 2 -17 5 -14 vhcurveto
          -53 -52 73 -73 66 64 rlineto
          -1 11 13 -1 14 hhcurveto
          270 hlineto
          13 11 1 1 11 hvcurveto
          65 -64 73 73 -50 49 rlineto
          5 15 3 17 20 vvcurveto
          endchar
        </CharString>
        <CharString name="d">
          -64 232 59 -24 callgsubr
          610 rmoveto
          -215 -45 callsubr
          -31 129 669 vlineto
          endchar
        </CharString>
        <CharString name="dagger">
          -98 540 464 rmoveto
          -168 158 -134 -158 -169 -59 169 -526 134 526 168 hlineto
          endchar
        </CharString>
        <CharString name="daggerdbl">
          -86 545 391 rmoveto
          59 -167 172 -134 -172 -170 -59 170 -308 -170 -59 170 -175 134 175 167 59 -167 308 vlineto
          endchar
        </CharString>
        <CharString name="danda">
          -281 315 callgsubr
          endchar
        </CharString>
        <CharString name="dcaron">
          -49 431 455 rmoveto
          21 -9 -18 9 -29 hhcurveto
          -227 hlineto
          -63 callsubr
          227 hlineto
          29 18 9 21 9 hvcurveto
          -30 129 669 -129 vlineto
          213 hmoveto
          316 callsubr
          -530 -610 13 callsubr
          167 hlineto
          24 11 -9 -24 hvcurveto
          -301 vlineto
          -24 -11 -9 -24 vhcurveto
          endchar
        </CharString>
        <CharString name="dcroat">
          -64 231 59 13 callsubr
          167 hlineto
          24 11 -9 -24 hvcurveto
          -301 vlineto
          -24 -11 -9 -24 vhcurveto
          233 540 rmoveto
          -69 70 -129 -70 -215 -59 215 -86 hlineto
          21 -8 -18 10 -30 hhcurveto
          -227 hlineto
          -63 callsubr
          227 hlineto
          88 callsubr
          -31 129 540 69 vlineto
          endchar
        </CharString>
        <CharString name="degree">
          -121 526 544 rmoveto
          -34 callsubr
          -311 hlineto
          -52 -26 -77 callgsubr
          -141 vlineto
          -53 26 -25 52 vhcurveto
          311 -85 callgsubr
          -122 10 84 callsubr
          -160 -62 callsubr
          122 vlineto
          25 -1 callgsubr
          160 hlineto
          26 5 -5 -25 hvcurveto
          endchar
        </CharString>
        <CharString name="dieresis">
          -77 375 634 218 callgsubr
        </CharString>
        <CharString name="divide">
          -35 321 callgsubr
          213 153 rmoveto
          -87 133 87 vlineto
          -133 -308 rmoveto
          -87 133 87 vlineto
          endchar
        </CharString>
        <CharString name="dollar">
          -46 231 343 307 callgsubr
          158 -41 callgsubr
          192 -55 callgsubr
          -93 133 104 -47 callsubr
          -117 92 -129 -92 -115 121 callgsubr
          280 -55 callgsubr
          -163 -17 callgsubr
          -193 -62 callsubr
          93 -133 -104 -71 callgsubr
          113 -91 129 91 120 148 callgsubr
          endchar
        </CharString>
        <CharString name="dotaccent">
          -77 244 529 rmoveto
          144 105 -144 hlineto
          endchar
        </CharString>
        <CharString name="dotlessi">
          -402 87 485 rmoveto
          -485 130 247 callsubr
        </CharString>
        <CharString name="dottedcircle">
          -46 139 517 rmoveto
          -26 18 -19 26 26 18 19 26 25 -18 19 -26 -26 -18 -19 -25 vhcurveto
          -82 -110 rmoveto
          -25 20 -19 26 24 20 19 25 25 -20 19 -24 -26 -20 -19 -25 vhcurveto
          -13 -126 rmoveto
          -25 19 -18 25 26 18 18 315 callsubr
          52 -116 rmoveto
          -26 18 -18 26 25 19 18 26 25 -19 19 -25 -26 -18 -19 -25 vhcurveto
          101 -75 rmoveto
          -26 19 -20 26 25 19 20 26 24 -19 20 -25 -26 -19 -20 -24 vhcurveto
          127 -16 rmoveto
          -26 18 -18 26 26 19 18 26 26 -19 18 -26 -26 -18 -18 -26 vhcurveto
          121 53 rmoveto
          -26 19 -18 25 25 20 18 26 25 -20 19 -25 -25 -19 -19 -25 vhcurveto
          73 98 rmoveto
          -25 19 -19 26 24 19 19 25 26 -19 19 -24 -26 -19 -19 -26 vhcurveto
          10 134 rmoveto
          -26 18 -18 26 25 19 18 26 26 -19 18 -25 -26 -18 -18 -26 vhcurveto
          -50 118 rmoveto
          -25 19 -19 25 26 18 19 315 callsubr
          -95 68 rmoveto
          -24 19 -20 26 25 18 20 24 26 -18 19 -25 -26 -19 -19 -26 vhcurveto
          -126 15 rmoveto
          -26 18 -18 26 26 18 18 26 26 -18 18 -26 -26 -18 -18 -26 vhcurveto
          endchar
        </CharString>
        <CharString name="doubledanda">
          86 315 callgsubr
          367 -622 rmoveto
          135 622 -135 hlineto
          endchar
        </CharString>
        <CharString name="dvA">
          365 1091 0 callgsubr
          -274 -62 callgsubr
          136 vlineto
          endchar
        </CharString>
        <CharString name="dvAA">
          721 1446 0 callgsubr
          -629 -62 callgsubr
          217 238 callsubr
        </CharString>
        <CharString name="dvAI">
          78 804 0 callgsubr
          -120 193 callgsubr
          -571 32 callsubr
        </CharString>
        <CharString name="dvAU">
          757 1482 0 callgsubr
          -136 hlineto
          -43 205 rlineto
          -106 103 callsubr
          -340 -62 callgsubr
          210 238 callsubr
        </CharString>
        <CharString name="dvAbbreviationsign">
          -44 453 219 rmoveto
          -21 callgsubr
          -182 18 callgsubr
          124 228 callsubr
          182 -85 callsubr
          -288 89 rmoveto
          -98 callsubr
          -146 -88 callsubr
          330 -64 callgsubr
          146 -58 callgsubr
          endchar
        </CharString>
        <CharString name="dvAcandra">
          365 1091 0 callgsubr
          -274 -62 callgsubr
          136 vlineto
          -73 289 rmoveto
          67 callsubr
          371 hlineto
          188 callsubr
          90 vlineto
          endchar
        </CharString>
        <CharString name="dvAnusvara">
          -706 -254 687 47 callgsubr
          109 -137 hlineto
          endchar
        </CharString>
        <CharString name="dvAnusvara.amI">
          -706 79 683 322 callgsubr
        </CharString>
        <CharString name="dvAvagraha">
          2 266 371 rmoveto
          -26 -6 6 317 callgsubr
          350 59 -442 -64 callsubr
          -155 2 callgsubr
          276 -85 callsubr
          -189 -74 callsubr
          -181 73 callgsubr
          89 -138 -101 vlineto
          -53 25 33 callgsubr
          365 -85 callgsubr
          215 -40 callsubr
          endchar
        </CharString>
        <CharString name="dvB">
          -240 534 0 callgsubr
          -554 -59 554 hlineto
          -314 -282 rmoveto
          48 -4 57 0 vhcurveto
          361 -249 rlineto
          -325 73 callgsubr
          378 -32 rmoveto
          2 40 -356 249 rlineto
          285 59 -367 -71 callsubr
          450 59 hlineto
          endchar
        </CharString>
        <CharString name="dvBA">
          120 252 221 callgsubr
          308 485 rmoveto
          -866 -59 592 257 callgsubr
          -66 callsubr
          89 callsubr
        </CharString>
        <CharString name="dvBH">
          16 127 callsubr
          381 59 rmoveto
          -243 174 hlineto
          -44 callgsubr
          243 vlineto
          endchar
        </CharString>
        <CharString name="dvBHA">
          378 127 callsubr
          606 311 rmoveto
          -273 -252 -195 174 hlineto
          -44 callgsubr
          195 -311 76 callsubr
        </CharString>
        <CharString name="dvBH_LA">
          1164 127 callsubr
          1392 311 rmoveto
          -1153 -59 878 -78 -264 hlineto
          -35 260 callgsubr
          -40 hhcurveto
          -316 -64 callsubr
          -37 -202 174 vlineto
          -44 callgsubr
          202 -233 -106 callgsubr
          219 93 callgsubr
          hlineto
          endchar
        </CharString>
        <CharString name="dvBH_NA">
          1092 1220 169 rmoveto
          -26 -5 -105 callgsubr
          236 hlineto
          -722 -258 9 callsubr
          1321 311 rmoveto
          -1096 -59 821 -78 196 callsubr
          -37 -182 174 vlineto
          -44 callgsubr
          182 -155 12 callgsubr
        </CharString>
        <CharString name="dvBH_R">
          12 500 -75 rmoveto
          165 hlineto
          247 219 -10 112 rlineto
          -406 -71 183 callsubr
          109 155 callsubr
          136 59 rmoveto
          159 -40 callsubr
          -376 -64 callsubr
          -87 138 74 -107 callsubr
          195 hlineto
          26 5 -61 callgsubr
          -146 -321 vlineto
          -53 -25 -24 -53 hvcurveto
          -135 184 callgsubr
          153 285 59 vlineto
          endchar
        </CharString>
        <CharString name="dvBH_RA">
          373 496 185 183 callsubr
          109 155 callsubr
          603 296 rmoveto
          -270 -237 -197 159 hlineto
          -34 callsubr
          -376 -64 callsubr
          -87 138 74 -107 callsubr
          195 hlineto
          26 5 -61 callgsubr
          -146 -321 vlineto
          -53 -25 -24 -53 hvcurveto
          -135 184 callgsubr
          153 197 -121 vlineto
          -329 -280 rlineto
          165 hlineto
          174 152 callgsubr
        </CharString>
        <CharString name="dvBH_R_YA">
          1011 1463 -101 callsubr
          -1213 -372 rmoveto
          -26 -6 7 24 hvcurveto
          113 -107 callsubr
          238 -145 hlineto
          -24 11 callsubr
          1281 431 rmoveto
          -1005 -59 372 hlineto
          -23 callgsubr
          -203 hlineto
          39 -6 -26 19 -45 hhcurveto
          -201 118 hlineto
          -34 callsubr
          -376 -64 callsubr
          -66 138 53 98 callsubr
          -105 -322 vlineto
          -53 -25 -24 -53 hvcurveto
          -139 184 callgsubr
          157 166 vlineto
          20 8 -3 -13 2 hvcurveto
          -195 vlineto
          -10 vlineto
          -306 -242 rlineto
          165 hlineto
          208 174 rlineto
          3 4 0 4 hhcurveto
          -80 callgsubr
        </CharString>
        <CharString name="dvBH_VA">
          813 127 callsubr
          1041 311 rmoveto
          -800 -59 526 -392 hlineto
          -26 -8 -8 -26 vhcurveto
          -215 98 callgsubr
          -37 -210 174 vlineto
          -44 callgsubr
          210 -155 69 callsubr
        </CharString>
        <CharString name="dvBH_YA">
          1006 1458 302 callgsubr
          -5 6 26 hvcurveto
          141 265 callsubr
          144 204 callgsubr
          -960 273 callgsubr
          111 vlineto
          25 187 callsubr
          1234 312 rmoveto
          -997 -59 364 147 callsubr
          -463 175 hlineto
          53 -25 25 -53 vhcurveto
          -379 hlineto
          -53 -25 -25 -53 hvcurveto
          -99 138 86 vlineto
          43 callgsubr
          179 -154 -93 callsubr
          531 270 callgsubr
        </CharString>
        <CharString name="dvB_BA">
          615 747 221 callgsubr
          -781 hmoveto
          -20 callsubr
          795 485 rmoveto
          -1361 -59 1087 257 callgsubr
          -66 callsubr
          -214 vlineto
          -336 233 rlineto
          285 59 -367 -71 callsubr
          388 94 callgsubr
          10 -19 callsubr
          378 -6 callsubr
        </CharString>
        <CharString name="dvB_BHA">
          860 407 0 callgsubr
          -427 -59 427 hlineto
          573 -395 9 callsubr
          -728 -174 rmoveto
          -20 callsubr
          1040 485 rmoveto
          -273 -252 -195 174 hlineto
          -10 callgsubr
          -161 -322 vlineto
          -53 -25 -24 -53 hvcurveto
          -100 85 callsubr
          -34 callgsubr
          155 195 -311 76 callsubr
        </CharString>
        <CharString name="dvB_BH_RA">
          841 393 0 callgsubr
          -413 -59 413 hlineto
          572 -378 281 callsubr
          -205 hlineto
          -26 -6 7 25 hvcurveto
          109 155 callsubr
          -713 -189 154 callgsubr
          1035 485 rmoveto
          -269 -237 -198 159 hlineto
          -34 callsubr
          -376 -64 callsubr
          -87 138 74 98 callsubr
          -146 -322 vlineto
          -53 -25 -24 -53 hvcurveto
          -114 vlineto
          -321 232 rlineto
          270 59 -352 -71 callsubr
          377 hlineto
          31 20 8 17 10 hvcurveto
          -5 12 14 -3 17 hhcurveto
          379 -85 callgsubr
          153 198 -121 vlineto
          -330 -280 rlineto
          166 hlineto
          173 152 callgsubr
        </CharString>
        <CharString name="dvB_DA">
          539 252 137 rmoveto
          -20 callsubr
          576 289 47 callgsubr
          143 59 -1285 -59 1004 -78 -326 vlineto
          -66 callsubr
          -215 vlineto
          -337 234 31 callgsubr
          -27 callsubr
          endchar
        </CharString>
        <CharString name="dvB_DHA">
          803 423 0 callgsubr
          -443 -59 443 hlineto
          -171 -426 rmoveto
          -20 callsubr
          982 485 225 callgsubr
          -471 hlineto
          -48 callsubr
          -76 85 callsubr
          565 -17 callsubr
        </CharString>
        <CharString name="dvB_DH_VA">
          1180 474 0 callgsubr
          -494 -59 494 hlineto
          -222 -426 154 callgsubr
          1374 485 rmoveto
          -740 -59 466 -392 hlineto
          -26 -8 -8 -26 vhcurveto
          -215 98 callgsubr
          -237 35 callgsubr
          -443 -84 callgsubr
          99 6 callsubr
          6 26 hvcurveto
          140 vlineto
          26 6 -36 callsubr
          -25 -25 -53 hvcurveto
          -159 vlineto
          -38 17 -17 34 -1 vhcurveto
          -5 vlineto
          -34 -1 -17 -16 -38 vvcurveto
          -76 86 callgsubr
          539 115 callgsubr
        </CharString>
        <CharString name="dvB_JA">
          850 252 137 rmoveto
          -20 callsubr
          1030 485 rmoveto
          -1596 -59 1322 241 callsubr
          -292 85 callsubr
          0 callsubr
        </CharString>
        <CharString name="dvB_JHA">
          887 1340 331 rmoveto
          -585 55 callsubr
          193 hlineto
          -1088 -426 rmoveto
          -20 callsubr
          1067 485 rmoveto
          -1633 -59 1030 -78 -347 134 callgsubr
          314 hlineto
          26 7 -7 -26 hvcurveto
          -70 22 callgsubr
          -256 53 -137 hlineto
          -340 236 rlineto
          285 59 -367 -71 callsubr
          388 hlineto
          12 177 callgsubr
          -81 141 78 349 107 callgsubr
          97 244 callgsubr
          194 -272 260 callsubr
        </CharString>
        <CharString name="dvB_J_YA">
          1484 252 137 154 callgsubr
          774 348 rmoveto
          -343 -4 callgsubr
          -134 -292 86 callgsubr
          375 78 callsubr
          209 vlineto
          630 -251 167 callsubr
          -2230 -59 1597 hlineto
          -23 callgsubr
          -270 -7 callgsubr
          516 hlineto
          17 11 3 10 -58 callsubr
        </CharString>
        <CharString name="dvB_JxA">
          836 762 -95 -25 callgsubr
          -510 124 154 callgsubr
          1030 485 rmoveto
          -1582 -59 1308 241 callsubr
          -292 86 callgsubr
          0 callsubr
        </CharString>
        <CharString name="dvB_LA">
          906 252 137 rmoveto
          -20 callsubr
          1086 485 rmoveto
          -1652 -59 1378 232 callgsubr
          -214 vlineto
          -336 233 rlineto
          285 59 -367 -71 callsubr
          388 hlineto
          12 177 callgsubr
          -3 -52 callsubr
        </CharString>
        <CharString name="dvB_L_YA">
          1528 252 137 154 callgsubr
          805 348 rmoveto
          -257 hlineto
          -36 -14 -16 -29 -4 hvcurveto
          -4 hlineto
          7 callsubr
          -316 -64 callsubr
          -214 vlineto
          -322 233 rlineto
          270 59 -352 -71 callsubr
          374 hlineto
          12 177 callgsubr
          -3 -106 callgsubr
          213 hlineto
          643 -251 -44 callsubr
          -2274 -59 1641 hlineto
          -89 callgsubr
        </CharString>
        <CharString name="dvB_NA">
          855 983 169 rmoveto
          -26 -5 -105 callgsubr
          236 hlineto
          -731 -289 rmoveto
          23 callsubr
          110 110 callsubr
          355 -242 rlineto
          -4 -6 -8 -2 -11 hhcurveto
          1036 485 rmoveto
          -1602 -59 1327 -78 196 callsubr
          -213 vlineto
          -337 232 31 callgsubr
          382 -64 callgsubr
          270 190 -426 1 callgsubr
        </CharString>
        <CharString name="dvB_R">
          -239 487 0 callgsubr
          -507 -59 507 hlineto
          75 -416 rmoveto
          -310 hlineto
          -26 -6 7 24 hvcurveto
          104 110 callsubr
          381 -241 rmoveto
          1 37 -349 242 rlineto
          280 59 -367 hlineto
          -66 callsubr
          -241 -93 callsubr
          263 hlineto
          -138 -154 rlineto
          151 hlineto
          142 175 rlineto
          36 38 hlineto
          endchar
        </CharString>
        <CharString name="dvB_RA">
          120 252 147 242 callgsubr
          306 475 rmoveto
          -866 -59 592 -235 hlineto
          -94 9 -49 0 vhcurveto
          -332 241 rlineto
          280 59 -367 hlineto
          -66 callsubr
          190 callsubr
        </CharString>
        <CharString name="dvB_SA">
          870 1322 339 rmoveto
          -203 hlineto
          -79 callgsubr
          214 hlineto
          -1070 -426 rmoveto
          -20 callsubr
          1051 485 rmoveto
          -1617 -59 971 hlineto
          26 5 -61 callgsubr
          -160 vlineto
          -8 callgsubr
          137 -138 -283 hlineto
          -336 233 rlineto
          285 59 -367 -71 callsubr
          388 hlineto
          12 177 callgsubr
          -3 vlineto
          -32 callsubr
        </CharString>
        <CharString name="dvB_SHA">
          866 407 0 callgsubr
          -427 -59 427 hlineto
          -155 -426 rmoveto
          -20 callsubr
          113 485 181 callgsubr
          -179 hlineto
          -335 232 rlineto
          285 59 -367 -71 callsubr
          388 hlineto
          11 177 callgsubr
          -3 -5 callsubr
        </CharString>
        <CharString name="dvB_TA">
          571 252 137 rmoveto
          -20 callsubr
          751 485 rmoveto
          -1317 -59 1044 -78 -366 -64 callsubr
          -214 vlineto
          -336 233 rlineto
          285 59 -367 -71 callsubr
          388 hlineto
          12 177 callgsubr
          -3 94 callsubr
        </CharString>
        <CharString name="dvB_VA">
          546 252 137 rmoveto
          -20 callsubr
          727 485 rmoveto
          -1293 -59 1019 -392 hlineto
          -26 -8 -8 -26 vhcurveto
          -215 98 callgsubr
          -214 85 callsubr
          309 -68 callgsubr
        </CharString>
        <CharString name="dvB_YA">
          771 1224 -101 callsubr
          -972 -426 rmoveto
          -20 callsubr
          952 485 rmoveto
          -1518 -59 885 hlineto
          -83 callsubr
          -175 hlineto
          49 callgsubr
          531 179 callsubr
          137 563 137 vlineto
          endchar
        </CharString>
        <CharString name="dvC">
          -238 560 0 callgsubr
          -580 -59 580 hlineto
          -279 -426 rmoveto
          -11 callsubr
          428 59 hlineto
          endchar
        </CharString>
        <CharString name="dvCA">
          302 callsubr
          -392 hlineto
          -26 -8 -8 -26 vhcurveto
          -276 hlineto
          -11 callsubr
          370 10 callsubr
          136 vlineto
          endchar
        </CharString>
        <CharString name="dvCH">
          348 1074 563 rmoveto
          59 -1094 -59 134 vlineto
          53 callgsubr
          -172 246 callgsubr
          -344 -56 callsubr
          endchar
        </CharString>
        <CharString name="dvCHA">
          349 638 485 rmoveto
          -104 -56 callsubr
          366 hlineto
          437 hmoveto
          59 -1095 -59 134 vlineto
          53 callgsubr
          -172 135 callgsubr
        </CharString>
        <CharString name="dvCH_RA">
          349 643 485 rmoveto
          -109 77 callgsubr
          371 hlineto
          432 hmoveto
          59 -1095 -59 134 vlineto
          105 callsubr
          53 -25 25 -53 vhcurveto
          -108 78 hlineto
          endchar
        </CharString>
        <CharString name="dvCH_R_YA">
          1296 1748 17 callsubr
          -947 77 callgsubr
          1476 hlineto
          131 callgsubr
          -2042 -59 134 hlineto
          105 callsubr
          7 0 6 -1 6 vhcurveto
          434 82 callsubr
        </CharString>
        <CharString name="dvCH_YA">
          1306 1758 17 callsubr
          -602 0 hlineto
          -4 -3 0 -4 hhcurveto
          -344 -56 callsubr
          1486 hlineto
          131 callgsubr
          -2052 -59 134 hlineto
          53 callgsubr
          -172 90 callgsubr
          7 0 6 -1 6 vhcurveto
          444 82 callsubr
        </CharString>
        <CharString name="dvC_CA">
          618 1344 0 callgsubr
          -1364 -59 1085 132 callgsubr
          -387 -59 90 227 callsubr
          -225 35 callgsubr
          -270 -84 callgsubr
          225 128 callgsubr
          138 59 -390 -59 96 277 callsubr
          366 -65 callsubr
          370 10 callsubr
          142 vlineto
          endchar
        </CharString>
        <CharString name="dvC_CHA">
          841 1130 485 rmoveto
          -104 -56 callsubr
          366 hlineto
          437 hmoveto
          59 -1587 -59 626 vlineto
          53 callgsubr
          -80 -1 35 callgsubr
          -279 hlineto
          -11 callsubr
          375 hlineto
          12 10 1 3 9 hvcurveto
          -4 135 callgsubr
        </CharString>
        <CharString name="dvC_CH_VA">
          838 1151 485 rmoveto
          -129 -64 callsubr
          -136 -88 callsubr
          177 59 -97 -84 callgsubr
          110 -107 callsubr
          187 -45 callgsubr
          -277 vlineto
          -25 -7 -7 -26 vhcurveto
          -531 -84 callgsubr
          131 -107 callsubr
          138 59 -138 -84 callgsubr
          160 -107 callsubr
          393 hlineto
          -231 -697 rmoveto
          149 callsubr
          97 -41 callgsubr
          234 -126 hlineto
          -75 callgsubr
          444 697 rmoveto
          59 -1584 -59 619 vlineto
          -7 -5 -4 -10 -16 vvcurveto
          -166 vlineto
          237 callgsubr
          -80 35 callgsubr
          -273 hlineto
          -11 callsubr
          369 hlineto
          13 10 1 3 9 hvcurveto
          -38 6 25 -18 45 hhcurveto
          101 hlineto
          -7 -5 -3 -10 -15 vvcurveto
          -112 95 callsubr
          288 -94 callgsubr
          -51 122 261 90 vlineto
          -50 callgsubr
          303 -40 callsubr
          -88 78 hlineto
          endchar
        </CharString>
        <CharString name="dvC_MA">
          859 1312 485 rmoveto
          -195 78 195 hlineto
          -333 -394 -96 callgsubr
          607 196 rmoveto
          -1606 -59 999 174 callgsubr
          -237 35 callgsubr
          -264 hlineto
          -11 callsubr
          360 56 callsubr
        </CharString>
        <CharString name="dvC_NA">
          864 992 169 -96 callgsubr
          598 196 rmoveto
          -1610 -59 1336 -78 275 callgsubr
          -274 hlineto
          -11 callsubr
          370 -65 callsubr
          381 -26 callsubr
          191 -33 callgsubr
        </CharString>
        <CharString name="dvC_R">
          -226 -20 563 rmoveto
          520 59 -520 hlineto
          47 -196 rmoveto
          299 callsubr
          -226 2 callgsubr
          240 hlineto
          -157 -156 rlineto
          156 hlineto
          170 174 rlineto
          39 41 -356 139 callgsubr
          212 106 callgsubr
          hlineto
          endchar
        </CharString>
        <CharString name="dvC_RA">
          302 callsubr
          -378 207 callsubr
          25 hvcurveto
          212 48 callgsubr
          -226 2 callgsubr
          240 hlineto
          -157 -156 rlineto
          156 hlineto
          163 167 rlineto
          -103 76 callsubr
        </CharString>
        <CharString name="dvC_YA">
          768 1220 175 -44 callsubr
          -1514 -59 881 46 callsubr
          -262 hlineto
          -11 callsubr
          358 43 callsubr
        </CharString>
        <CharString name="dvCandrabindu">
          -706 -310 685 rmoveto
          370 hlineto
          53 22 26 52 hvcurveto
          89 -119 -76 vlineto
          -26 -5 -68 callsubr
          -221 -84 callgsubr
          76 -119 -89 vlineto
          -52 22 -26 55 vhcurveto
          135 121 rmoveto
          98 95 -98 hlineto
          endchar
        </CharString>
        <CharString name="dvD">
          43 471 -61 40 callsubr
          -631 683 rmoveto
          116 callsubr
          372 137 143 59 hlineto
          endchar
        </CharString>
        <CharString name="dvDA">
          43 311 callgsubr
          143 59 -789 116 callsubr
          endchar
        </CharString>
        <CharString name="dvDA_mvR">
          44 311 callgsubr
          144 59 -790 322 callsubr
          -326 vlineto
          -80 callsubr
          92 callsubr
          -149 vlineto
          194 callsubr
          319 59 -226 hlineto
          172 callsubr
          194 325 -138 -95 hlineto
          5 callsubr
          endchar
        </CharString>
        <CharString name="dvDD">
          23 295 -61 40 callsubr
          181 487 306 callgsubr
          -771 -59 499 -78 -307 vlineto
          -53 -24 -25 -53 hvcurveto
          -78 vlineto
          -53 24 -24 53 vhcurveto
          -66 callgsubr
        </CharString>
        <CharString name="dvDDA">
          25 616 297 callsubr
          -771 -59 499 -78 -307 vlineto
          -53 -24 -25 -53 hvcurveto
          -78 vlineto
          -53 24 -24 53 vhcurveto
          -66 callgsubr
        </CharString>
        <CharString name="dvDDH">
          68 311 -61 40 callsubr
          175 487 47 callgsubr
          168 59 -814 322 callsubr
          -310 45 callgsubr
          1 callsubr
          422 -64 callgsubr
          134 -58 callgsubr
          -222 -59 138 -85 callsubr
          -108 -74 callsubr
          -246 -102 callgsubr
          endchar
        </CharString>
        <CharString name="dvDDHA">
          68 311 callgsubr
          168 59 -814 322 callsubr
          -310 45 callgsubr
          1 callsubr
          422 -64 callgsubr
          134 -58 callgsubr
          -222 -59 138 -85 callsubr
          -108 -74 callsubr
          -246 -102 callgsubr
          endchar
        </CharString>
        <CharString name="dvDDH_DDHA">
          83 658 111 callgsubr
          151 59 -829 -59 540 -78 -341 vlineto
          -53 -24 -26 -53 hvcurveto
          -196 208 callsubr
          -17 -37 vvcurveto
          -194 95 callsubr
          432 144 callsubr
          64 -40 callsubr
          -134 -61 52 hlineto
          26 5 -7 -25 hvcurveto
          -36 vlineto
          -25 -5 -68 callsubr
          -257 139 callgsubr
          179 156 callgsubr
          339 144 callsubr
          63 -40 callsubr
          -134 -61 52 hlineto
          26 5 -61 callgsubr
          -35 vlineto
          -25 -5 -68 callsubr
          -257 139 callgsubr
          179 vlineto
          25 6 8 26 vhcurveto
          endchar
        </CharString>
        <CharString name="dvDDH_R">
          70 321 -201 40 callsubr
          165 627 214 callsubr
          115 hlineto
          -96 228 callgsubr
          65 136 64 -136 rlineto
          134 hlineto
          -94 164 rlineto
          101 139 callsubr
        </CharString>
        <CharString name="dvDDH_RA">
          70 626 426 214 callsubr
          106 116 callgsubr
          93 139 callsubr
        </CharString>
        <CharString name="dvDDH_YA">
          1026 1477 197 callsubr
          -28 vhcurveto
          -431 126 callgsubr
          84 233 41 callsubr
          77 -40 callsubr
          -584 78 851 hlineto
          275 59 rmoveto
          -1772 322 callsubr
          -310 -64 callsubr
          1 callsubr
          422 -64 callgsubr
          134 -58 callgsubr
          -222 -59 138 -85 callsubr
          -108 -74 callsubr
          -246 -102 callgsubr
          848 -45 callgsubr
          -50 22 callgsubr
          -277 209 callgsubr
          11 3 8 7 hvcurveto
          -89 1 callgsubr
        </CharString>
        <CharString name="dvDDHxA">
          68 349 -173 -25 callgsubr
          277 491 47 callgsubr
          168 59 -814 322 callsubr
          -310 45 callgsubr
          1 callsubr
          422 -64 callgsubr
          134 -58 callgsubr
          -222 -59 138 -85 callsubr
          -108 -74 callsubr
          -246 -102 callgsubr
          endchar
        </CharString>
        <CharString name="dvDD_DDA">
          235 callgsubr
          -36 -88 callsubr
          306 -45 callgsubr
          -45 22 callgsubr
          -210 -84 callgsubr
          35 -138 -46 vlineto
          -37 17 -18 34 vhcurveto
          -5 vlineto
          -34 -1 -17 -17 -38 vvcurveto
          -20 2 callgsubr
          306 -85 callsubr
          -48 -74 callsubr
          -210 hlineto
          -26 -7 7 25 hvcurveto
          29 -137 -42 -88 callsubr
          394 -85 callgsubr
          74 -40 callsubr
          -306 hlineto
          283 callgsubr
          11 -107 callsubr
          303 hlineto
          188 callsubr
          73 vlineto
          53 -24 24 -53 vhcurveto
          -307 -84 callgsubr
          10 168 callsubr
        </CharString>
        <CharString name="dvDD_DDHA">
          235 callgsubr
          -39 2 callgsubr
          307 hlineto
          26 6 -7 -26 hvcurveto
          -49 -74 callsubr
          -211 -84 callgsubr
          35 -138 -46 vlineto
          -37 17 262 callsubr
          vlineto
          -34 -1 -17 -17 -37 vvcurveto
          -183 2 callgsubr
          391 hlineto
          188 callsubr
          69 -58 callgsubr
          -131 -61 48 -85 callsubr
          -41 240 callsubr
          -216 139 callgsubr
          174 vlineto
          24 6 7 26 vhcurveto
          303 144 callsubr
          77 -40 callsubr
          -307 hlineto
          283 callgsubr
          13 168 callsubr
        </CharString>
        <CharString name="dvDD_R">
          26 296 -200 40 callsubr
          181 626 47 callgsubr
          137 59 -774 -59 500 -78 -307 vlineto
          -66 callsubr
          -78 95 callsubr
          123 callgsubr
          -123 288 callgsubr
          78 -137 -91 95 callsubr
          92 hlineto
          -95 -164 rlineto
          132 hlineto
          66 136 61 -136 rlineto
          134 hlineto
          -92 164 rlineto
          89 201 callgsubr
        </CharString>
        <CharString name="dvDD_RA">
          26 617 111 callgsubr
          137 59 -774 -59 500 -78 -307 vlineto
          -66 callsubr
          -78 95 callsubr
          123 callgsubr
          -123 288 callgsubr
          78 -137 -91 95 callsubr
          83 hlineto
          -90 251 callsubr
          65 -143 rlineto
          134 hlineto
          -88 164 rlineto
          81 201 callgsubr
        </CharString>
        <CharString name="dvDD_VA">
          49 264 -80 rmoveto
          -26 -6 6 25 hvcurveto
          95 vlineto
          24 6 7 26 vhcurveto
          238 -123 hlineto
          -75 callgsubr
          168 506 47 callgsubr
          139 59 -795 -59 518 -78 299 callgsubr
          -58 -88 callsubr
          316 hlineto
          26 6 -5 -26 hvcurveto
          -72 -74 callsubr
          -221 18 callgsubr
          46 -137 -50 vlineto
          -38 17 262 callsubr
          vlineto
          -34 -2 -17 -15 -38 vvcurveto
          -110 95 callsubr
          292 -94 callgsubr
          -47 120 260 vlineto
          27 10 13 23 38 vvcurveto
          99 241 callgsubr
          -316 hlineto
          -26 -6 7 26 hvcurveto
          31 168 callsubr
        </CharString>
        <CharString name="dvDD_YA">
          983 1435 17 callsubr
          -551 78 818 hlineto
          131 callgsubr
          -1729 -59 500 -78 -307 hlineto
          198 callgsubr
          -7 307 callsubr
          -137 -94 31 callsubr
          155 148 callsubr
          51 228 callsubr
          810 82 callsubr
        </CharString>
        <CharString name="dvDDxA">
          25 330 -173 -25 callgsubr
          286 491 306 callgsubr
          -771 -59 499 -78 -307 vlineto
          -53 -24 -25 -53 hvcurveto
          -78 vlineto
          -53 24 -24 53 vhcurveto
          -66 callgsubr
        </CharString>
        <CharString name="dvDH">
          -41 267 137 rmoveto
          -78 callsubr
          662 59 hlineto
          endchar
        </CharString>
        <CharString name="dvDHA">
          319 1045 622 225 callgsubr
          -471 hlineto
          -78 callsubr
          565 -17 callsubr
        </CharString>
        <CharString name="dvDH_MA">
          1041 1493 485 rmoveto
          -196 78 196 hlineto
          -334 -394 rmoveto
          -26 -5 -105 callgsubr
          236 hlineto
          608 196 rmoveto
          -1068 -59 460 -78 -321 -64 callsubr
          -237 35 callgsubr
          -459 hlineto
          -78 callsubr
          555 53 callsubr
          196 -426 -74 callgsubr
        </CharString>
        <CharString name="dvDH_NA">
          1033 1161 137 callsubr
          598 196 rmoveto
          -1065 -59 791 -78 275 callgsubr
          -457 hlineto
          -78 callsubr
          553 53 callsubr
          190 93 callsubr
          vlineto
          endchar
        </CharString>
        <CharString name="dvDH_N_YA">
          1669 1154 297 callgsubr
          -205 -86 callsubr
          237 hlineto
          326 hmoveto
          59 -651 45 callgsubr
          -237 35 callgsubr
          -450 hlineto
          -78 callsubr
          546 53 callsubr
          vlineto
          834 -251 -44 callsubr
          -1712 -59 1079 hlineto
          -89 callgsubr
        </CharString>
        <CharString name="dvDH_R">
          -40 267 151 rmoveto
          77 callsubr
          424 hlineto
          -174 -156 rlineto
          170 hlineto
          181 170 rlineto
          39 45 hlineto
          endchar
        </CharString>
        <CharString name="dvDH_RA">
          319 1045 0 callgsubr
          -273 -437 hlineto
          -75 callgsubr
          -471 hlineto
          77 callsubr
          420 hlineto
          -174 -156 rlineto
          174 hlineto
          177 166 rlineto
          -102 76 callsubr
        </CharString>
        <CharString name="dvDH_VA">
          710 1436 0 callgsubr
          -740 -59 467 -392 hlineto
          -75 callgsubr
          -216 -104 callgsubr
          200 59 -292 -64 callsubr
          -237 35 callgsubr
          -442 hlineto
          -78 callsubr
          538 199 callgsubr
        </CharString>
        <CharString name="dvDH_YA">
          949 1401 175 -44 callsubr
          -987 -59 354 153 callgsubr
          -456 hlineto
          -78 callsubr
          552 hlineto
          25 17 5 11 11 hvcurveto
          -11 257 callsubr
          137 vlineto
          endchar
        </CharString>
        <CharString name="dvD_BA">
          71 489 -16 rmoveto
          -227 hlineto
          -26 -5 7 25 hvcurveto
          31 vlineto
          52 -4 47 0 vhcurveto
          298 19 rmoveto
          -59 vlineto
          -38 1 -38 1 -14 vhcurveto
          -1 4 rlineto
          -3 0 -3 -2 vvcurveto
          -243 153 rlineto
          372 261 47 callgsubr
          142 59 -817 -59 538 -78 -345 vlineto
          -66 callsubr
          -153 vlineto
          -38 16 -17 34 -1 vhcurveto
          -5 vlineto
          -34 -1 -16 -16 -38 vvcurveto
          -134 95 callsubr
          320 -94 callgsubr
          -63 137 460 -137 -109 -260 vlineto
          23 callsubr
          138 168 callsubr
        </CharString>
        <CharString name="dvD_BHA">
          264 846 111 callgsubr
          144 59 -1010 -59 729 -78 -323 45 callgsubr
          -211 -88 callsubr
          300 hlineto
          14 11 2 7 7 hvcurveto
          -127 138 271 -138 -63 vlineto
          -24 -8 -7 -26 vhcurveto
          -209 -84 callgsubr
          185 -107 callsubr
          -291 -236 rmoveto
          48 -19 27 -55 vhcurveto
          -92 -58 20 hlineto
          26 4 -9 -24 hvcurveto
          -245 116 71 446 59 -446 vlineto
          endchar
        </CharString>
        <CharString name="dvD_B_RA">
          72 502 14 rmoveto
          -240 126 callgsubr
          23 vlineto
          61 -4 27 0 vhcurveto
          301 20 rmoveto
          -39 vlineto
          -54 4 -43 0 vhcurveto
          -268 136 rlineto
          394 249 47 callgsubr
          140 59 -818 -59 541 -78 -348 vlineto
          -66 callsubr
          -142 vlineto
          251 callgsubr
          -1 -17 -16 -38 vvcurveto
          -116 -93 callsubr
          202 hlineto
          -132 -137 rlineto
          150 hlineto
          135 149 rlineto
          -80 137 438 -137 -90 -263 vlineto
          23 callsubr
          110 vlineto
          25 6 23 26 vhcurveto
          endchar
        </CharString>
        <CharString name="dvD_DA">
          148 728 266 callgsubr
          -894 -59 611 -78 -411 45 callgsubr
          -72 vlineto
          -38 17 -17 117 callsubr
          -112 2 callgsubr
          395 -94 callgsubr
          -71 138 220 -138 -65 vlineto
          -75 callgsubr
          -301 139 callgsubr
          96 176 callsubr
          190 59 -190 73 callgsubr
          56 168 callsubr
        </CharString>
        <CharString name="dvD_DHA">
          282 167 121 rmoveto
          248 callgsubr
          68 59 -143 hlineto
          169 callgsubr
          697 338 47 callgsubr
          144 59 -1028 -59 747 -78 -323 45 callgsubr
          -200 vlineto
          146 callsubr
        </CharString>
        <CharString name="dvD_GA">
          29 611 111 callgsubr
          144 59 -775 -59 494 -78 -312 vlineto
          -80 callsubr
          20 -86 hlineto
          -25 -7 -7 -26 vhcurveto
          -33 -59 112 -85 callgsubr
          99 145 vlineto
          14 11 3 6 7 hvcurveto
          -226 138 405 279 callgsubr
          -195 -86 callsubr
          endchar
        </CharString>
        <CharString name="dvD_GHA">
          282 864 111 callgsubr
          144 59 -1028 -59 747 -78 -323 45 callgsubr
          -51 -206 vlineto
          169 callgsubr
          33 vlineto
          248 callgsubr
          131 -90 hlineto
          146 callsubr
        </CharString>
        <CharString name="dvD_G_RA">
          29 611 111 callgsubr
          144 59 -775 -59 494 -78 -314 45 callgsubr
          58 callsubr
          19 -98 hlineto
          188 callgsubr
          -33 -59 107 hlineto
          53 30 -73 callsubr
          110 157 vlineto
          14 11 3 6 7 hvcurveto
          -77 vlineto
          -273 -230 rlineto
          149 hlineto
          78 69 rlineto
          32 27 20 24 0 0 -6 -37 -45 vvcurveto
          -46 126 494 -126 280 callsubr
          -206 -104 callgsubr
          endchar
        </CharString>
        <CharString name="dvD_MA">
          391 848 167 rmoveto
          -207 160 -134 -95 hlineto
          -75 callgsubr
          -216 -84 callgsubr
          164 -107 callsubr
          374 137 217 hlineto
          269 59 rmoveto
          -1137 -59 514 -78 -329 -64 callsubr
          -190 -88 callsubr
          310 -94 callgsubr
          -122 134 82 207 -132 133 587 -35 callsubr
        </CharString>
        <CharString name="dvD_NA">
          40 766 0 callgsubr
          -786 -59 516 -78 -334 hlineto
          -66 callsubr
          -231 -93 callsubr
          313 -94 callsubr
          -285 vlineto
          -53 -25 -24 -53 hvcurveto
          -62 132 48 228 callsubr
          198 -102 126 401 -126 -69 hlineto
          -75 callgsubr
          -219 hlineto
          -26 -5 7 25 hvcurveto
          205 -25 callsubr
          379 137 133 hlineto
          endchar
        </CharString>
        <CharString name="dvD_R">
          44 502 -123 40 callsubr
          -662 745 rmoveto
          -59 509 -78 -326 vlineto
          -53 -25 -25 -53 hvcurveto
          12 callsubr
          371 137 144 59 hlineto
          endchar
        </CharString>
        <CharString name="dvD_RA">
          44 311 callgsubr
          144 59 -790 -59 509 -78 -326 vlineto
          -53 -25 -25 -53 hvcurveto
          12 callsubr
          endchar
        </CharString>
        <CharString name="dvD_VA">
          75 528 231 callsubr
          390 260 47 callgsubr
          143 59 -821 -59 541 -78 -345 45 callgsubr
          114 callsubr
        </CharString>
        <CharString name="dvD_YA">
          289 741 151 rmoveto
          -75 callgsubr
          -438 139 callgsubr
          75 176 callsubr
          177 59 -177 73 callgsubr
          49 -107 callsubr
          282 137 190 hlineto
          131 callgsubr
          -1035 -59 434 -78 -237 -64 callsubr
          -65 vlineto
          -37 17 -17 34 -2 vhcurveto
          -4 vlineto
          -34 -1 -17 -17 -37 vvcurveto
          -91 -88 callsubr
          532 -94 callgsubr
          -73 138 569 -35 callsubr
        </CharString>
        <CharString name="dvE">
          78 804 0 callgsubr
          -824 32 callsubr
        </CharString>
        <CharString name="dvEcandra">
          78 588 685 rmoveto
          188 callsubr
          90 -131 67 callsubr
          587 -63 rmoveto
          -824 32 callsubr
        </CharString>
        <CharString name="dvEight">
          3 490 374 rmoveto
          -23 -7 -10 -25 vhcurveto
          -207 hlineto
          253 callsubr
          157 vlineto
          24 5 8 26 vhcurveto
          211 hlineto
          26 5 -8 -24 hvcurveto
          -440 vmoveto
          -25 -6 -7 -25 vhcurveto
          -211 hlineto
          -26 -5 8 24 hvcurveto
          158 vlineto
          23 8 10 24 vhcurveto
          209 hlineto
          25 7 -10 -23 hvcurveto
          134 294 rmoveto
          47 -20 32 -56 vhcurveto
          -388 hlineto
          -56 -20 -32 -47 hvcurveto
          -154 vlineto
          -48 20 -28 45 -1 vhcurveto
          -3 vlineto
          -44 -1 -21 -22 -49 vvcurveto
          -157 vlineto
          -48 20 -32 56 vhcurveto
          388 hlineto
          56 20 32 48 hvcurveto
          157 vlineto
          49 -21 22 -44 1 vhcurveto
          3 vlineto
          45 1 20 28 48 vvcurveto
          endchar
        </CharString>
        <CharString name="dvEyelash">
          -62 606 400 281 callsubr
          -397 73 callgsubr
          43 -135 -56 -88 callsubr
          578 -85 callgsubr
          56 -138 vlineto
          -626 179 rmoveto
          -59 764 59 vlineto
          endchar
        </CharString>
        <CharString name="dvEyelash_HA">
          315 903 296 callsubr
          -1061 -59 786 -78 -316 45 callgsubr
          -45 -195 vlineto
          -26 -6 7 26 hvcurveto
          43 -135 -57 -88 callsubr
          301 hlineto
          -7 8 11 -3 15 hhcurveto
          -5 vlineto
          -34 -1 -17 -17 -38 vvcurveto
          -154 -88 callsubr
          470 59 -378 -84 callgsubr
          142 -107 callsubr
          217 hlineto
          26 6 -7 -25 hvcurveto
          -91 131 101 vlineto
          55 -28 26 -55 vhcurveto
          -297 -84 callgsubr
          38 168 callsubr
        </CharString>
        <CharString name="dvEyelash_YA">
          538 991 175 rmoveto
          -29 -11 -9 -28 -69 callgsubr
          239 vlineto
          53 24 -83 callgsubr
          202 hlineto
          263 callgsubr
          -1284 -59 652 288 callsubr
          -455 73 callgsubr
          43 -135 -56 -88 callsubr
          259 -153 151 callsubr
        </CharString>
        <CharString name="dvFive">
          26 238 391 rmoveto
          172 391 59 -528 -290 371 vlineto
          26 4 -8 -24 hvcurveto
          -209 vlineto
          -24 -4 -7 callsubr
          -203 hlineto
          -25 -4 8 24 hvcurveto
          118 -138 -131 vlineto
          -48 20 -30 56 vhcurveto
          386 hlineto
          56 20 32 48 hvcurveto
          233 vlineto
          48 -20 30 -56 vhcurveto
          endchar
        </CharString>
        <CharString name="dvFour">
          19 668 174 rmoveto
          -103 152 -129 -152 -236 hlineto
          220 448 rlineto
          -137 hlineto
          -220 -438 rlineto
          -69 373 -115 129 115 103 vlineto
          endchar
        </CharString>
        <CharString name="dvG">
          26 235 137 rmoveto
          -59 callgsubr
          267 485 rmoveto
          -772 -59 200 callsubr
          vlineto
          endchar
        </CharString>
        <CharString name="dvGA">
          394 235 137 rmoveto
          -59 callgsubr
          635 485 rmoveto
          -1140 -59 -70 callsubr
          193 -563 76 callsubr
        </CharString>
        <CharString name="dvGH">
          -201 270 137 191 callsubr
          328 59 -618 -59 131 hlineto
          20 callsubr
          488 59 hlineto
          endchar
        </CharString>
        <CharString name="dvGHA">
          182 634 171 rmoveto
          -75 callgsubr
          -330 63 callgsubr
          364 hlineto
          131 callgsubr
          -928 -59 131 hlineto
          20 callsubr
          424 -6 callsubr
        </CharString>
        <CharString name="dvGH_MA">
          909 1362 485 rmoveto
          -195 78 195 hlineto
          -333 -394 -96 callgsubr
          -400 -256 rmoveto
          22 callsubr
          -325 63 callgsubr
          759 174 callgsubr
          1007 215 rmoveto
          -1656 -59 131 hlineto
          20 callsubr
          421 56 callsubr
        </CharString>
        <CharString name="dvGH_NA">
          904 1355 485 rmoveto
          -649 hlineto
          -53 -24 303 callgsubr
          -324 63 callgsubr
          1085 hlineto
          -324 -394 rmoveto
          -26 -5 -105 callgsubr
          236 hlineto
          599 196 rmoveto
          -1650 -59 131 hlineto
          20 callsubr
          420 53 callsubr
          190 -426 1 callgsubr
        </CharString>
        <CharString name="dvGH_R">
          -184 102 405 rmoveto
          247 callgsubr
          294 hlineto
          -159 -156 rlineto
          157 hlineto
          168 170 rlineto
          34 45 -401 139 callgsubr
          311 callsubr
          180 59 -180 -84 callgsubr
          121 -107 callsubr
          270 59 -562 318 callsubr
          endchar
        </CharString>
        <CharString name="dvGH_RA">
          184 636 185 rmoveto
          -75 callgsubr
          -330 139 callgsubr
          311 callsubr
          180 59 -180 -84 callgsubr
          121 -107 callsubr
          364 hlineto
          131 callgsubr
          -930 318 callsubr
          -127 vlineto
          247 callgsubr
          297 hlineto
          -159 -156 rlineto
          154 hlineto
          165 167 rlineto
          -103 -60 callgsubr
        </CharString>
        <CharString name="dvGH_YA">
          820 1272 -101 callsubr
          -1002 -426 191 callsubr
          643 46 callsubr
          951 485 rmoveto
          -1566 -59 131 hlineto
          20 callsubr
          421 43 callsubr
        </CharString>
        <CharString name="dvG_BA">
          855 987 221 callgsubr
          -1038 hmoveto
          -59 callgsubr
          1096 485 rmoveto
          -1601 -59 -70 callsubr
          653 -248 vlineto
          272 callsubr
          -337 246 rlineto
          285 59 -367 hlineto
          -53 -24 -25 -53 hvcurveto
          89 callsubr
        </CharString>
        <CharString name="dvG_BHA">
          1134 100 callsubr
          1274 -454 9 callsubr
          606 311 rmoveto
          -273 -252 -195 174 hlineto
          -44 callgsubr
          195 -311 76 callsubr
        </CharString>
        <CharString name="dvG_BH_YA">
          1729 30 callgsubr
          2202 -447 42 callgsubr
          -29 vhcurveto
          -421 126 callgsubr
          142 224 vlineto
          -50 callgsubr
          143 204 callgsubr
          -948 -395 9 callsubr
          1221 311 rmoveto
          -963 -59 331 227 callgsubr
          -25 -6 -7 -26 vhcurveto
          -451 174 hlineto
          -44 callgsubr
          181 -155 -93 callsubr
          258 callsubr
        </CharString>
        <CharString name="dvG_DA">
          778 235 137 rmoveto
          -59 callgsubr
          876 289 47 callgsubr
          143 59 -1524 -59 537 -137 -365 vlineto
          294 callsubr
          425 -64 callgsubr
          407 569 -78 -326 vlineto
          -53 -24 -25 -53 hvcurveto
          -21 callsubr
        </CharString>
        <CharString name="dvG_DHA">
          1073 100 callsubr
          1819 hmoveto
          106 callsubr
          -471 hlineto
          -78 callsubr
          565 -17 callsubr
        </CharString>
        <CharString name="dvG_DH_VA">
          1453 30 callgsubr
          2199 hmoveto
          -733 -59 459 -392 hlineto
          -26 -8 -8 -26 vhcurveto
          -215 98 callgsubr
          -237 35 callgsubr
          -449 75 callgsubr
          545 -65 callsubr
          309 -68 callgsubr
        </CharString>
        <CharString name="dvG_DH_YA">
          1659 30 callgsubr
          2132 -447 42 callgsubr
          -29 vhcurveto
          -421 -61 callsubr
          225 -96 callsubr
          263 callgsubr
          -942 -59 310 hlineto
          -23 callgsubr
          -271 -198 252 callgsubr
          -445 75 callgsubr
          541 -65 callsubr
          258 callsubr
        </CharString>
        <CharString name="dvG_GA">
          1131 972 137 rmoveto
          -59 callgsubr
          -987 hmoveto
          -59 callgsubr
          1372 485 rmoveto
          -1877 -59 -70 callsubr
          600 -137 -365 vlineto
          294 callsubr
          425 -64 callgsubr
          407 193 -563 76 callsubr
        </CharString>
        <CharString name="dvG_GHA">
          916 1368 171 rmoveto
          -75 callgsubr
          -330 63 callgsubr
          364 hlineto
          -1133 -426 rmoveto
          -59 callgsubr
          1157 485 rmoveto
          -1662 -59 -70 callsubr
          191 vlineto
          20 callsubr
          424 -6 callsubr
        </CharString>
        <CharString name="dvG_JA">
          1107 235 137 rmoveto
          -59 callgsubr
          1348 485 rmoveto
          -1853 -59 -70 callsubr
          905 -78 -325 -316 vlineto
          -84 callsubr
          190 93 callsubr
          vlineto
          endchar
        </CharString>
        <CharString name="dvG_LA">
          1163 235 137 rmoveto
          -59 callgsubr
          1404 485 rmoveto
          -1909 -59 -70 callsubr
          961 -78 -264 vlineto
          -36 -14 -16 -29 -4 hvcurveto
          -4 hlineto
          7 callsubr
          -316 -64 callsubr
          -329 -52 callsubr
        </CharString>
        <CharString name="dvG_MA">
          1114 1567 485 rmoveto
          -195 78 195 hlineto
          -333 -394 -96 callgsubr
          -999 -289 rmoveto
          -59 callgsubr
          1356 485 rmoveto
          -1861 -59 -70 callsubr
          580 -78 299 callgsubr
          -69 callsubr
          195 -33 callgsubr
        </CharString>
        <CharString name="dvG_NA">
          1084 1212 169 rmoveto
          -26 -5 -105 callgsubr
          236 hlineto
          -977 -289 rmoveto
          -59 callgsubr
          1326 485 rmoveto
          -1831 -59 -70 callsubr
          882 -78 -649 vlineto
          -53 -24 -25 -53 hvcurveto
          74 callsubr
        </CharString>
        <CharString name="dvG_NNA">
          1122 1235 169 -23 callsubr
          -1000 -426 rmoveto
          -59 callgsubr
          1363 485 rmoveto
          -1868 -59 -70 callsubr
          183 201 callsubr
        </CharString>
        <CharString name="dvG_N_YA">
          1757 1240 137 callsubr
          326 hmoveto
          59 -651 vlineto
          242 callsubr
          vlineto
          835 -251 -106 callsubr
          -1974 -426 rmoveto
          -59 callgsubr
          1998 485 rmoveto
          -2503 -59 -70 callsubr
          1196 vlineto
          -89 callgsubr
        </CharString>
        <CharString name="dvG_R">
          103 callgsubr
          237 83 rmoveto
          -369 -331 rlineto
          163 hlineto
          261 254 rlineto
          endchar
        </CharString>
        <CharString name="dvG_RA">
          387 232 154 59 callsubr
        </CharString>
        <CharString name="dvG_R_YA">
          1014 1466 -101 callsubr
          -1234 -409 71 callsubr
          1258 468 rmoveto
          -1760 51 callgsubr
          390 460 vlineto
          -83 callsubr
          -168 hlineto
          -307 -275 rlineto
          163 hlineto
          171 166 rlineto
          -9 12 17 -4 22 hhcurveto
          -80 callgsubr
        </CharString>
        <CharString name="dvG_SA">
          1127 1579 339 rmoveto
          -203 hlineto
          -79 callgsubr
          214 hlineto
          -1344 -426 rmoveto
          -59 callgsubr
          1369 485 rmoveto
          -1874 -59 -70 callsubr
          554 vlineto
          -101 callgsubr
          604 -280 145 callgsubr
          137 vlineto
          endchar
        </CharString>
        <CharString name="dvG_VA">
          793 235 137 rmoveto
          -59 callgsubr
          1034 485 rmoveto
          -1539 -59 -70 callsubr
          591 -392 vlineto
          -26 -8 -8 -26 vhcurveto
          -215 98 callgsubr
          -19 callgsubr
        </CharString>
        <CharString name="dvG_YA">
          996 1448 -101 callsubr
          -1213 -426 rmoveto
          -59 callgsubr
          1237 485 rmoveto
          -1742 -59 -70 callsubr
          435 vlineto
          -89 callgsubr
        </CharString>
        <CharString name="dvGx">
          27 292 -95 -25 callgsubr
          -57 124 rmoveto
          -59 callgsubr
          268 485 rmoveto
          -773 -59 -70 callsubr
          99 vlineto
          endchar
        </CharString>
        <CharString name="dvGxA">
          394 294 -95 -25 callgsubr
          -59 124 rmoveto
          -59 callgsubr
          635 485 rmoveto
          -1140 -59 -70 callsubr
          193 -563 76 callsubr
        </CharString>
        <CharString name="dvGx_R">
          103 callgsubr
          292 6 rmoveto
          -55 77 -369 -331 rlineto
          163 hlineto
          -37 -185 322 callgsubr
        </CharString>
        <CharString name="dvGx_RA">
          341 648 -260 -25 callgsubr
          -416 306 59 callsubr
        </CharString>
        <CharString name="dvH">
          34 871 265 rmoveto
          59 -596 vlineto
          149 callsubr
          38 -25 callsubr
          362 137 215 59 -872 -59 519 -78 -316 hlineto
          -66 callsubr
          -59 21 callgsubr
          -154 -93 callsubr
          471 59 -379 126 callgsubr
          142 -25 callsubr
          endchar
        </CharString>
        <CharString name="dvHA">
          235 callsubr
          -59 21 callgsubr
          -154 -18 callgsubr
        </CharString>
        <CharString name="dvHA_mU">
          54 642 426 rmoveto
          137 138 59 -800 -59 525 -78 -322 vlineto
          214 callgsubr
          321 hlineto
          26 8 -9 -24 hvcurveto
          -98 35 callgsubr
          -163 hlineto
          -23 -7 8 20 -12 hvcurveto
          -43 74 rlineto
          -139 hlineto
          58 -97 rlineto
          -58 36 20 -6 70 hhcurveto
          296 hlineto
          53 22 22 53 hvcurveto
          132 vlineto
          53 -22 22 -53 vhcurveto
          -322 126 callgsubr
          132 -25 callsubr
          223 hlineto
          26 5 -7 -25 hvcurveto
          -90 132 100 vlineto
          55 -28 26 -55 vhcurveto
          -303 126 callgsubr
          38 -25 callsubr
          endchar
        </CharString>
        <CharString name="dvHA_mUU">
          54 672 5 rmoveto
          59 -35 -21 5 -70 hhcurveto
          -271 126 callgsubr
          132 -25 callsubr
          223 hlineto
          26 5 -7 -25 hvcurveto
          -91 132 101 vlineto
          55 -28 26 -55 vhcurveto
          -303 126 callgsubr
          38 -25 callsubr
          367 195 callgsubr
          hlineto
          214 callgsubr
          18 hlineto
          -1 -5 0 -5 -6 vvcurveto
          -120 vlineto
          -53 22 -22 53 vhcurveto
          210 59 -120 hlineto
          172 callsubr
          142 310 callsubr
          139 hlineto
          endchar
        </CharString>
        <CharString name="dvHA_mvR">
          235 callsubr
          -56 21 callgsubr
          -187 vlineto
          -53 24 -27 53 vhcurveto
          476 59 -384 hlineto
          -26 -5 9 25 hvcurveto
          175 -25 callsubr
          229 hlineto
          14 14 -4 -15 hvcurveto
          -24 -43 -43 -39 vvcurveto
          -39 25 -15 45 vhcurveto
          114 57 -33 hlineto
          -14 -7 3 9 hvcurveto
          24 44 46 39 vvcurveto
          46 -32 14 -45 vhcurveto
          -311 126 callgsubr
          35 -25 callsubr
          endchar
        </CharString>
        <CharString name="dvH_LA">
          178 747 111 callgsubr
          157 59 -924 -59 629 -78 -426 vlineto
          -66 callsubr
          -39 21 callgsubr
          -258 95 callsubr
          585 59 -493 hlineto
          -26 -5 6 25 hvcurveto
          246 -25 callsubr
          376 hlineto
          26 6 -7 -25 hvcurveto
          -8 -93 vlineto
          -24 -9 -10 -18 -4 hvcurveto
          -4 hlineto
          20 -3 -12 8 -27 hhcurveto
          -128 hlineto
          -38 -17 -18 -36 hvcurveto
          -119 vlineto
          -38 17 -17 38 vhcurveto
          117 50 -58 hlineto
          -19 -4 4 18 hvcurveto
          83 vlineto
          18 4 4 19 vhcurveto
          44 hlineto
          19 4 -4 -18 hvcurveto
          -66 92 66 vlineto
          18 4 4 18 vhcurveto
          64 -177 103 246 hlineto
          55 -28 26 -56 vhcurveto
          -427 126 callgsubr
          18 -25 callsubr
          endchar
        </CharString>
        <CharString name="dvH_MA">
          424 876 246 rmoveto
          -215 7 hlineto
          55 -28 26 -55 vhcurveto
          -303 126 callgsubr
          28 -25 callsubr
          367 137 234 hlineto
          131 callgsubr
          -1170 -59 525 -78 298 callgsubr
          -49 21 callgsubr
          -164 -93 callsubr
          471 59 -379 126 callgsubr
          152 -25 callsubr
          223 hlineto
          26 5 -7 -25 hvcurveto
          -111 132 55 215 -187 -60 callgsubr
        </CharString>
        <CharString name="dvH_NA">
          83 653 111 callgsubr
          156 59 -829 -59 536 -78 -333 vlineto
          -66 callsubr
          -49 21 callgsubr
          -233 -93 callsubr
          483 59 -391 126 callgsubr
          221 -25 callsubr
          272 hlineto
          26 6 -7 -25 hvcurveto
          -41 -164 45 callgsubr
          -56 112 43 vlineto
          25 7 7 26 vhcurveto
          97 -91 112 201 hlineto
          55 -29 26 -55 vhcurveto
          -332 126 callgsubr
          28 -25 callsubr
          endchar
        </CharString>
        <CharString name="dvH_NNA">
          168 498 180 rmoveto
          -15 -3 -3 -16 vhcurveto
          -57 hlineto
          -15 -3 3 15 hvcurveto
          105 94 vlineto
          239 141 47 callgsubr
          157 59 -914 -59 619 -78 -416 vlineto
          -66 callsubr
          -39 21 callgsubr
          -174 -93 callsubr
          573 59 -481 126 callgsubr
          162 -25 callsubr
          48 -120 hlineto
          -42 20 -20 41 vhcurveto
          133 hlineto
          42 20 20 42 hvcurveto
          120 45 vlineto
          26 6 -7 -25 hvcurveto
          -105 119 115 vlineto
          55 -28 26 -55 vhcurveto
          -417 126 callgsubr
          18 -25 callsubr
          endchar
        </CharString>
        <CharString name="dvH_RA">
          87 679 111 callgsubr
          134 59 -833 -59 561 -78 -358 vlineto
          -66 callsubr
          -56 vlineto
          251 callgsubr
          -1 -17 -17 -38 vvcurveto
          -157 -93 callsubr
          501 59 -409 126 callgsubr
          145 -25 callsubr
          196 hlineto
          -106 -142 rlineto
          94 hlineto
          98 135 rlineto
          5 -5 1 -8 -12 vvcurveto
          -101 132 111 vlineto
          55 -29 26 -55 vhcurveto
          -336 126 callgsubr
          35 -25 callsubr
          endchar
        </CharString>
        <CharString name="dvH_VA">
          99 685 111 callgsubr
          140 59 -845 -59 568 -78 -365 vlineto
          -66 callsubr
          -38 vlineto
          -38 17 -18 33 vhcurveto
          -4 vlineto
          -33 -1 -17 -17 -38 vvcurveto
          -228 -93 callsubr
          518 59 -426 hlineto
          -26 -5 13 25 hvcurveto
          210 -25 callsubr
          296 hlineto
          26 5 -7 -25 hvcurveto
          -122 vlineto
          -19 -5 -6 -19 vhcurveto
          -157 hlineto
          -19 -4 5 18 hvcurveto
          44 vlineto
          19 4 4 19 vhcurveto
          148 42 -199 hlineto
          -38 -17 -18 -38 hvcurveto
          -63 vlineto
          -37 17 -18 38 vhcurveto
          209 hlineto
          10 8 2 5 5 hvcurveto
          -34 97 226 vlineto
          55 -28 26 -56 vhcurveto
          -340 126 callgsubr
          17 -25 callsubr
          endchar
        </CharString>
        <CharString name="dvH_YA">
          425 877 222 rmoveto
          -75 callgsubr
          -187 hlineto
          7 5 4 10 16 vvcurveto
          43 vlineto
          55 -29 26 -55 vhcurveto
          -308 126 callgsubr
          19 -25 callsubr
          373 137 229 hlineto
          131 callgsubr
          -1171 -59 531 -78 -328 hlineto
          -66 callsubr
          -40 vlineto
          -37 17 -17 117 callsubr
          -174 -93 callsubr
          482 59 -390 126 callgsubr
          161 -25 callsubr
          228 hlineto
          26 6 -7 -25 hvcurveto
          -32 -74 callsubr
          -95 -59 437 308 callsubr
          563 136 vlineto
          endchar
        </CharString>
        <CharString name="dvI">
          41 650 111 callgsubr
          117 59 -787 -59 532 -78 -344 29 callsubr
          endchar
        </CharString>
        <CharString name="dvII">
          42 651 111 callgsubr
          117 59 -155 115 176 callsubr
          100 59 -192 hlineto
          -53 -25 -24 -53 hvcurveto
          -128 -494 -59 532 -78 -344 29 callsubr
          endchar
        </CharString>
        <CharString name="dvII_Anusvara">
          42 652 111 callgsubr
          116 59 -180 138 vlineto
          24 8 9 26 vhcurveto
          138 59 -236 305 callsubr
          -155 -468 -59 533 -78 -345 29 callsubr
          491 234 rmoveto
          94 -93 -94 vlineto
          endchar
        </CharString>
        <CharString name="dvJ">
          8 850 0 callgsubr
          -870 -59 870 hlineto
          32 -78 rmoveto
          -18 callsubr
          251 vlineto
          endchar
        </CharString>
        <CharString name="dvJA">
          369 1095 0 callgsubr
          -1115 -59 841 -78 -325 -63 callgsubr
          190 93 callsubr
          vlineto
          endchar
        </CharString>
        <CharString name="dvJH">
          15 886 331 rmoveto
          -623 55 callsubr
          189 59 -864 3 callsubr
          229 hlineto
          endchar
        </CharString>
        <CharString name="dvJHA">
          395 848 331 rmoveto
          -585 55 callsubr
          193 hlineto
          263 callgsubr
          -1141 -59 538 -78 -347 134 callgsubr
          314 hlineto
          26 7 -7 -26 hvcurveto
          -70 22 callgsubr
          -256 219 callgsubr
          349 -64 callgsubr
          97 244 callgsubr
          194 -272 260 callsubr
        </CharString>
        <CharString name="dvJH_MA">
          1134 1586 485 rmoveto
          -195 78 195 hlineto
          -333 -394 -96 callgsubr
          -400 -95 rmoveto
          -590 55 callsubr
          598 174 callgsubr
          1007 215 rmoveto
          -1880 3 callsubr
          196 -116 211 callsubr
          195 -33 callgsubr
        </CharString>
        <CharString name="dvJH_NA">
          1111 1563 226 callgsubr
          -76 -574 vlineto
          -90 callsubr
          31 -107 callsubr
          392 137 908 hlineto
          -324 -394 rmoveto
          -26 -5 -105 callgsubr
          236 hlineto
          599 196 rmoveto
          -1858 3 callsubr
          180 -116 hlineto
          171 callgsubr
          190 -426 1 callgsubr
        </CharString>
        <CharString name="dvJH_R">
          50 655 253 rmoveto
          197 callgsubr
          275 59 -665 55 callsubr
          120 59 -796 -59 538 -78 -346 hlineto
          -53 -25 -25 -53 hvcurveto
          114 callgsubr
          348 -64 callgsubr
          263 63 rmoveto
          -352 -294 rlineto
          166 hlineto
          218 202 rlineto
          endchar
        </CharString>
        <CharString name="dvJH_RA">
          413 870 331 rmoveto
          -606 55 callsubr
          214 hlineto
          269 59 rmoveto
          -1159 -59 538 -78 -346 hlineto
          -53 -25 -25 -53 hvcurveto
          114 callgsubr
          348 -64 callgsubr
          97 244 callgsubr
          216 -90 hlineto
          -304 -257 rlineto
          166 hlineto
          147 139 rlineto
          0 -5 -35 -47 vvcurveto
          -24 129 605 -35 callsubr
        </CharString>
        <CharString name="dvJH_YA">
          1038 1491 -101 callsubr
          -644 -232 rmoveto
          -584 55 callsubr
          477 hlineto
          -83 callsubr
          hlineto
          918 254 rmoveto
          -1785 3 callsubr
          190 -116 236 callsubr
        </CharString>
        <CharString name="dvJ_BA">
          844 976 221 callgsubr
          308 485 rmoveto
          -1590 -59 1316 257 callgsubr
          -4 15 callsubr
          179 vlineto
          111 callsubr
        </CharString>
        <CharString name="dvJ_DA">
          763 1346 111 callgsubr
          143 59 -1509 -59 1228 -78 -712 -316 vlineto
          -84 callsubr
          175 vlineto
          -42 callsubr
          -21 callsubr
        </CharString>
        <CharString name="dvJ_DDA">
          735 1328 297 callsubr
          -1483 -59 1211 -78 -307 vlineto
          -2 15 callsubr
          177 79 callsubr
        </CharString>
        <CharString name="dvJ_JA">
          1091 1817 0 callgsubr
          -1837 -59 1563 64 callsubr
          -459 -316 vlineto
          -84 callsubr
          190 -270 210 callsubr
        </CharString>
        <CharString name="dvJ_JHA">
          1113 1566 331 rmoveto
          -585 55 callsubr
          193 hlineto
          263 callgsubr
          -1859 -59 1255 -78 -739 -63 callgsubr
          181 vlineto
          -42 callsubr
          114 callgsubr
          349 -64 callgsubr
          97 244 callgsubr
          194 -272 260 callsubr
        </CharString>
        <CharString name="dvJ_J_NYA">
          1072 1798 0 callgsubr
          -1818 -59 1544 -78 -1028 -63 callgsubr
          174 vlineto
          -42 callsubr
          38 callsubr
          550 38 callgsubr
        </CharString>
        <CharString name="dvJ_J_VA">
          1491 2217 0 callgsubr
          -2237 -59 1963 -392 hlineto
          -82 callgsubr
          -675 83 callsubr
          173 vlineto
          -42 callsubr
          -19 callgsubr
        </CharString>
        <CharString name="dvJ_J_YA">
          1737 1544 485 rmoveto
          -326 83 callsubr
          192 vlineto
          645 -251 -44 callsubr
          -2483 -59 1850 hlineto
          -89 callgsubr
        </CharString>
        <CharString name="dvJ_KA">
          1102 1829 563 rmoveto
          59 -1849 -59 1218 -392 vlineto
          -97 callgsubr
          -4 15 callsubr
          179 vlineto
          -53 callsubr
        </CharString>
        <CharString name="dvJ_MA">
          1088 1540 485 rmoveto
          -195 78 195 hlineto
          -333 -394 -96 callgsubr
          607 196 rmoveto
          -1834 -59 1227 -78 -322 hlineto
          -3 15 callsubr
          177 vlineto
          -42 callsubr
          -69 callsubr
          195 -33 callgsubr
        </CharString>
        <CharString name="dvJ_NA">
          1073 1201 113 callsubr
          -1820 -59 1545 -78 -1029 -63 callgsubr
          169 vlineto
          -42 callsubr
          74 callsubr
        </CharString>
        <CharString name="dvJ_NY">
          7 836 0 callgsubr
          -856 -59 856 hlineto
          47 -137 rmoveto
          59 -705 45 callgsubr
          38 callsubr
          endchar
        </CharString>
        <CharString name="dvJ_NYA">
          368 1094 0 callgsubr
          -1114 -59 840 -78 -642 -64 callsubr
          38 callsubr
          550 38 callgsubr
        </CharString>
        <CharString name="dvJ_NY_YA">
          991 270 322 100 callgsubr
          40 -107 callsubr
          550 59 -642 -64 callsubr
          145 callsubr
          907 -147 -44 callsubr
          -1755 -59 1122 hlineto
          -89 callgsubr
        </CharString>
        <CharString name="dvJ_R">
          303 callsubr
          -100 -137 113 callgsubr
        </CharString>
        <CharString name="dvJ_RA">
          365 1091 622 81 callgsubr
        </CharString>
        <CharString name="dvJ_TA">
          799 1525 0 callgsubr
          -1545 -59 1272 -78 -366 hlineto
          -4 15 callsubr
          178 vlineto
          -42 callsubr
          -329 94 callsubr
        </CharString>
        <CharString name="dvJ_TTA">
          755 1335 266 callgsubr
          -1501 -59 1218 -78 -309 vlineto
          -7 15 callsubr
          181 vlineto
          -42 callsubr
          1 callsubr
          398 -85 callgsubr
          166 -138 -153 vlineto
          -26 -6 -6 -26 vhcurveto
          -214 -102 callgsubr
          endchar
        </CharString>
        <CharString name="dvJ_VA">
          790 1516 0 callgsubr
          -1536 -59 1262 -392 hlineto
          -82 callgsubr
          -696 -63 callgsubr
          193 vlineto
          -42 callsubr
          -19 callgsubr
        </CharString>
        <CharString name="dvJ_YA">
          1019 828 426 rmoveto
          59 -332 -316 vlineto
          -84 callsubr
          vlineto
          841 -251 rmoveto
          -29 -11 -9 -28 vhcurveto
          -435 198 callsubr
          -1765 -59 1133 288 callsubr
          -285 223 callgsubr
        </CharString>
        <CharString name="dvJx">
          5 846 0 callgsubr
          -866 -59 866 hlineto
          -551 -658 -25 callgsubr
          587 472 rmoveto
          -18 callsubr
          251 vlineto
          endchar
        </CharString>
        <CharString name="dvJxA">
          369 289 -95 -25 callgsubr
          806 609 rmoveto
          -1115 -59 841 -78 -325 -63 callgsubr
          190 93 callsubr
          vlineto
          endchar
        </CharString>
        <CharString name="dvJx_JxA">
          1092 295 -95 -25 callgsubr
          715 -108 -25 callgsubr
          808 609 rmoveto
          -1838 -59 1564 64 callsubr
          -460 -316 vlineto
          -84 callsubr
          191 -270 210 callsubr
        </CharString>
        <CharString name="dvJx_R">
          303 callsubr
          -479 -652 -25 callgsubr
          379 407 113 callgsubr
        </CharString>
        <CharString name="dvJx_RA">
          356 242 -120 -25 callgsubr
          849 634 81 callgsubr
        </CharString>
        <CharString name="dvJx_YA">
          1016 293 -123 47 callgsubr
          109 -137 hlineto
          532 440 rmoveto
          59 -329 -316 vlineto
          -84 callsubr
          vlineto
          838 -251 47 callsubr
          -1762 -59 1130 79 callgsubr
        </CharString>
        <CharString name="dvK">
          33 643 485 179 callgsubr
          220 59 -851 -90 callgsubr
          257 59 hlineto
          endchar
        </CharString>
        <CharString name="dvKA">
          379 1105 563 rmoveto
          59 -1125 -59 494 -392 vlineto
          -26 -8 -8 -26 vhcurveto
          -186 hlineto
          -26 -5 6 26 hvcurveto
          225 vlineto
          26 5 6 26 vhcurveto
          170 59 -262 hlineto
          -53 -24 -25 -53 hvcurveto
          -49 callgsubr
        </CharString>
        <CharString name="dvKH">
          317 237 234 rmoveto
          262 hlineto
          105 callgsubr
          505 59 -1102 -59 461 -238 vlineto
          14 callsubr
          -385 154 callsubr
          626 87 rmoveto
          -12 callsubr
          391 58 hlineto
          endchar
        </CharString>
        <CharString name="dvKHA">
          663 1389 622 45 callsubr
        </CharString>
        <CharString name="dvKH_KHA">
          1683 2409 0 callgsubr
          -2429 -77 callsubr
          884 -238 vlineto
          14 callsubr
          -251 252 callgsubr
          -222 289 callgsubr
          208 59 -288 289 callsubr
          306 hlineto
          12 177 callgsubr
          -45 vlineto
          132 callsubr
          539 -347 vlineto
          -28 -10 -10 -28 vhcurveto
          -215 hlineto
          -12 callsubr
          298 163 callgsubr
          137 vlineto
          endchar
        </CharString>
        <CharString name="dvKH_MA">
          1397 1849 485 rmoveto
          -196 78 196 hlineto
          -334 -394 rmoveto
          -26 -5 -105 callgsubr
          236 hlineto
          608 196 rmoveto
          -2143 -77 callsubr
          938 -78 -321 291 callsubr
          -36 callgsubr
          14 11 2 3 9 hvcurveto
          -32 300 callgsubr
          -42 callgsubr
          196 -426 -74 callgsubr
        </CharString>
        <CharString name="dvKH_NA">
          1407 1535 169 -96 callgsubr
          598 196 rmoveto
          -2153 -77 callsubr
          1282 -78 -649 45 callgsubr
          -195 vlineto
          -24 -8 -10 -26 vhcurveto
          -235 hlineto
          -12 callsubr
          319 hlineto
          14 11 2 3 9 hvcurveto
          -32 300 callgsubr
          381 -8 callsubr
        </CharString>
        <CharString name="dvKH_R">
          120 callsubr
          626 90 129 callgsubr
        </CharString>
        <CharString name="dvKH_RA">
          663 1389 0 callgsubr
          -1409 -59 461 -236 hlineto
          312 callsubr
          167 -138 -385 -6 callgsubr
        </CharString>
        <CharString name="dvKH_SHA">
          1402 237 234 rmoveto
          262 hlineto
          105 callgsubr
          347 59 -944 -5 callgsubr
        </CharString>
        <CharString name="dvKH_TA">
          1093 1819 0 callgsubr
          -1839 -77 callsubr
          968 -78 -366 291 callsubr
          -204 192 callgsubr
          288 hlineto
          12 177 callgsubr
          -45 63 callsubr
          137 hlineto
          endchar
        </CharString>
        <CharString name="dvKH_VA">
          1082 1808 0 callgsubr
          -1828 -77 callsubr
          957 -392 vlineto
          -26 -8 -8 -26 vhcurveto
          -215 98 callgsubr
          -207 vlineto
          209 callsubr
          -36 callgsubr
          13 11 1 3 9 hvcurveto
          -31 9 24 -15 41 183 callgsubr
        </CharString>
        <CharString name="dvKH_YA">
          1307 1760 175 -1 callsubr
        </CharString>
        <CharString name="dvKHx">
          312 439 -173 -25 callgsubr
          -202 299 rmoveto
          262 hlineto
          105 callgsubr
          499 59 -1096 -59 461 -238 vlineto
          14 callsubr
          -385 154 callsubr
          626 87 rmoveto
          -12 callsubr
          386 58 hlineto
          endchar
        </CharString>
        <CharString name="dvKHxA">
          663 474 -173 -25 callgsubr
          915 687 45 callsubr
        </CharString>
        <CharString name="dvKHx_MA">
          1397 143 callsubr
          1411 557 rmoveto
          -196 78 196 hlineto
          -334 -394 -96 callgsubr
          607 196 rmoveto
          -2143 -77 callsubr
          939 -78 -322 291 callsubr
          -36 callgsubr
          14 11 2 3 9 hvcurveto
          -32 300 callgsubr
          382 78 callsubr
          196 -426 76 callsubr
        </CharString>
        <CharString name="dvKHx_R">
          120 callsubr
          693 -334 -25 callgsubr
          -67 316 129 callgsubr
        </CharString>
        <CharString name="dvKHx_RA">
          633 908 -243 -25 callgsubr
          481 757 rmoveto
          -1409 -59 461 -236 hlineto
          312 callsubr
          167 -138 -385 -6 callgsubr
        </CharString>
        <CharString name="dvKHx_SA">
          1406 143 callsubr
          1419 411 rmoveto
          -203 hlineto
          -79 callgsubr
          214 hlineto
          275 59 rmoveto
          -2153 -77 callsubr
          910 vlineto
          26 5 -61 callgsubr
          -160 vlineto
          -8 callgsubr
          137 -138 -264 252 callgsubr
          -36 callgsubr
          12 177 callgsubr
          -45 vlineto
          -32 callsubr
        </CharString>
        <CharString name="dvKHx_SHA">
          1402 143 callsubr
          -202 306 rmoveto
          262 hlineto
          105 callgsubr
          352 59 -949 -5 callgsubr
        </CharString>
        <CharString name="dvKHx_TA">
          1093 143 callsubr
          1380 694 rmoveto
          -1839 -77 callsubr
          968 -78 -365 291 callsubr
          -205 192 callgsubr
          289 hlineto
          12 177 callgsubr
          -45 -95 callsubr
          273 38 callgsubr
        </CharString>
        <CharString name="dvKHx_VA">
          1082 143 callsubr
          1369 694 rmoveto
          -1828 -77 callsubr
          958 110 callgsubr
          -216 -104 callgsubr
          200 59 -292 -64 callsubr
          -207 vlineto
          209 callsubr
          -36 callgsubr
          13 11 1 3 9 hvcurveto
          -31 300 callgsubr
          310 -17 callsubr
        </CharString>
        <CharString name="dvKHx_YA">
          1307 143 callsubr
          1321 247 -1 callsubr
        </CharString>
        <CharString name="dvK_CA">
          867 1319 171 rmoveto
          233 callgsubr
          -506 hlineto
          -57 callgsubr
          708 262 callgsubr
          -1613 -59 494 -392 hlineto
          -107 callgsubr
          207 277 callsubr
          369 -68 callgsubr
        </CharString>
        <CharString name="dvK_DA">
          772 1217 485 rmoveto
          -574 hlineto
          -57 callgsubr
          606 vlineto
          138 -137 47 callgsubr
          143 59 -1518 -90 callgsubr
          170 hlineto
          -42 callsubr
          -21 callsubr
        </CharString>
        <CharString name="dvK_JA">
          1110 1562 485 rmoveto
          70 callgsubr
          -331 vlineto
          -57 callgsubr
          951 262 callgsubr
          -1856 -59 494 -392 hlineto
          -107 callgsubr
          195 -270 hlineto
          16 callgsubr
        </CharString>
        <CharString name="dvK_KA">
          1113 1208 171 rmoveto
          -95 callgsubr
          -515 hlineto
          -57 callgsubr
          597 vlineto
          631 hmoveto
          59 -1859 -90 callgsubr
          175 hlineto
          -53 callsubr
        </CharString>
        <CharString name="dvK_KHA">
          1407 1185 325 rmoveto
          88 callgsubr
          192 -338 hlineto
          -57 callgsubr
          574 vlineto
          948 59 rmoveto
          -2153 -59 494 -392 hlineto
          -107 callgsubr
          198 -348 hlineto
          -100 callsubr
          480 310 callgsubr
          263 vlineto
          53 24 189 callgsubr
          540 -347 vlineto
          -28 -11 -10 -28 vhcurveto
          -215 hlineto
          -26 -5 7 25 hvcurveto
          154 -25 callsubr
          209 59 -289 287 callgsubr
          299 163 callgsubr
          136 vlineto
          endchar
        </CharString>
        <CharString name="dvK_LA">
          1142 1594 254 callsubr
          -567 hlineto
          -57 callgsubr
          983 262 callgsubr
          -1888 -59 494 -392 hlineto
          -107 callgsubr
          172 hlineto
          -42 callsubr
          -329 -52 callsubr
        </CharString>
        <CharString name="dvK_MA">
          1098 1551 485 rmoveto
          -195 78 195 hlineto
          -333 -394 -96 callgsubr
          59 vmoveto
          -575 hlineto
          -57 callgsubr
          607 vlineto
          607 59 rmoveto
          -1845 -59 494 -392 hlineto
          -107 callgsubr
          174 hlineto
          -42 callsubr
          -69 callsubr
          195 -33 callgsubr
        </CharString>
        <CharString name="dvK_NA">
          1085 1537 485 rmoveto
          -894 hlineto
          -57 callgsubr
          926 vlineto
          -324 -394 rmoveto
          -26 -5 -105 callgsubr
          236 hlineto
          599 196 rmoveto
          -1832 -59 494 -392 hlineto
          -107 callgsubr
          167 hlineto
          -42 callsubr
          74 callsubr
        </CharString>
        <CharString name="dvK_NNA">
          1107 1219 169 -23 callsubr
          -576 -78 179 callgsubr
          210 -78 vlineto
          1011 137 rmoveto
          -1852 -59 494 -392 hlineto
          -107 callgsubr
          176 -270 hlineto
          -100 callsubr
          243 callsubr
        </CharString>
        <CharString name="dvK_PA">
          788 1240 -37 callgsubr
          -597 -78 179 callgsubr
          220 -78 vlineto
          683 137 rmoveto
          -1534 -59 494 -392 hlineto
          -107 callgsubr
          186 -270 104 callgsubr
        </CharString>
        <CharString name="dvK_PHA">
          1151 1241 -37 callgsubr
          -598 -78 179 callgsubr
          221 -78 vlineto
          1045 78 rmoveto
          59 -1897 -90 callgsubr
          187 -270 hlineto
          -100 callsubr
          299 hlineto
          14 11 3 6 7 hvcurveto
          -87 -91 callgsubr
        </CharString>
        <CharString name="dvK_P_RA">
          792 1244 29 callgsubr
          -601 -78 179 callgsubr
          224 -78 vlineto
          683 137 rmoveto
          -1538 -59 494 -392 hlineto
          -107 callgsubr
          190 -233 112 callgsubr
        </CharString>
        <CharString name="dvK_R">
          35 644 485 66 callsubr
        </CharString>
        <CharString name="dvK_RA">
          380 1106 563 rmoveto
          59 -1126 -59 495 -386 vlineto
          -26 -8 -8 -26 vhcurveto
          -186 hlineto
          -26 -6 6 25 hvcurveto
          220 vlineto
          26 6 6 26 vhcurveto
          170 59 -262 hlineto
          -53 -25 -25 -53 hvcurveto
          -246 -22 callgsubr
        </CharString>
        <CharString name="dvK_SA">
          1104 1556 339 rmoveto
          -202 hlineto
          -79 callgsubr
          213 hlineto
          -339 -192 215 callgsubr
          614 91 rmoveto
          -1851 -59 494 -392 hlineto
          -107 callgsubr
          169 304 callgsubr
          25 25 53 hvcurveto
          136 -138 -123 vlineto
          -26 -6 8 callsubr
        </CharString>
        <CharString name="dvK_SHA">
          1126 894 0 callgsubr
          -98 callsubr
          -59 -173 vlineto
          -57 callgsubr
          62 59 -693 -90 callgsubr
          308 105 hlineto
          189 callsubr
          196 -45 callgsubr
          -176 vlineto
          -25 -7 -7 -26 vhcurveto
          -229 47 -138 -292 hlineto
          -100 callsubr
          379 -85 callgsubr
          119 -138 -106 -74 callsubr
          -196 126 callgsubr
          173 322 107 callgsubr
          202 -58 callgsubr
          553 hmoveto
          -275 -622 145 callgsubr
          137 hlineto
          endchar
        </CharString>
        <CharString name="dvK_SS">
          25 268 530 rmoveto
          189 callsubr
          169 -85 callsubr
          -137 vlineto
          -26 -6 -5 -26 vhcurveto
          -169 hlineto
          -26 -7 5 26 hvcurveto
          634 -90 rmoveto
          59 -279 vlineto
          -40 callgsubr
          endchar
        </CharString>
        <CharString name="dvK_SSA">
          381 502 393 50 callgsubr
          605 92 rmoveto
          -274 -260 -210 hlineto
          -40 callgsubr
          586 -303 292 callgsubr
        </CharString>
        <CharString name="dvK_SS_MA">
          1104 1557 485 rmoveto
          -196 78 196 hlineto
          -334 -394 -96 callgsubr
          -721 -33 50 callgsubr
          1328 92 rmoveto
          -1066 -59 459 174 callgsubr
          -45 -200 vlineto
          -40 callgsubr
          576 -147 211 callsubr
          196 -426 76 callsubr
        </CharString>
        <CharString name="dvK_SS_M_YA">
          1744 2196 -101 callsubr
          -973 -394 -96 callgsubr
          -721 -33 50 callgsubr
          1968 92 rmoveto
          -1703 -59 456 174 callgsubr
          -45 -200 vlineto
          -40 callgsubr
          576 -147 211 callsubr
          193 59 -193 78 476 vlineto
          -89 callgsubr
        </CharString>
        <CharString name="dvK_SS_VA">
          797 502 393 50 callgsubr
          1021 92 rmoveto
          -766 -59 493 -392 hlineto
          -26 -8 -8 -26 vhcurveto
          -215 98 callgsubr
          -45 -208 vlineto
          -40 callgsubr
          584 -147 hlineto
          -100 callsubr
          309 -17 callsubr
        </CharString>
        <CharString name="dvK_SS_YA">
          1005 1457 302 callgsubr
          -6 6 26 hvcurveto
          136 239 41 callsubr
          150 204 callgsubr
          -955 -168 rmoveto
          -26 -6 -5 -26 vhcurveto
          -169 hlineto
          -26 -7 5 26 hvcurveto
          135 122 callsubr
          1229 92 rmoveto
          -978 -59 345 -85 callsubr
          -135 -74 callsubr
          -475 hlineto
          8 6 4 11 18 vvcurveto
          145 vlineto
          53 -24 24 -53 vhcurveto
          -345 hlineto
          -53 -25 -24 -53 hvcurveto
          -145 vlineto
          -18 4 -11 8 -6 vhcurveto
          -51 -2 -18 -31 -47 vvcurveto
          -128 -93 callsubr
          308 203 callsubr
          224 -138 -49 vlineto
          283 callsubr
          -213 126 callgsubr
          104 -25 callsubr
          566 -149 hlineto
          -100 callsubr
          531 270 callgsubr
        </CharString>
        <CharString name="dvK_S_DDA">
          1501 1649 485 rmoveto
          -66 callsubr
          -68 -199 vlineto
          -79 callgsubr
          594 -78 hlineto
          -720 -114 rmoveto
          -8 callgsubr
          137 -1 9 -328 hlineto
          -57 callgsubr
          594 vlineto
          26 5 -61 callgsubr
          857 -105 306 callgsubr
          -2248 -90 callgsubr
          189 -46 callgsubr
          611 vlineto
          -19 12 22 -9 32 hhcurveto
          -66 callgsubr
        </CharString>
        <CharString name="dvK_S_P_LA">
          2280 2732 485 rmoveto
          -264 hlineto
          -36 -13 -16 -29 -5 hvcurveto
          -4 hlineto
          7 callsubr
          -316 hlineto
          -66 callsubr
          -237 vlineto
          -24 -8 -9 204 callsubr
          394 1039 vlineto
          -1378 -224 rmoveto
          -79 callgsubr
          216 -224 hlineto
          -342 32 215 callgsubr
          1789 91 rmoveto
          -3026 -59 494 -392 hlineto
          -107 callgsubr
          169 304 callgsubr
          25 25 53 hvcurveto
          136 -138 -123 122 callgsubr
          189 607 220 callgsubr
          288 hlineto
          12 177 callgsubr
          -3 -93 callsubr
          295 59 -203 286 callsubr
          186 hlineto
          26 8 217 callsubr
        </CharString>
        <CharString name="dvK_S_P_RA">
          1543 1995 29 callgsubr
          -623 -224 rmoveto
          -79 callgsubr
          225 -224 hlineto
          -351 32 133 callgsubr
          1034 91 rmoveto
          -2289 -59 494 -392 hlineto
          -107 callgsubr
          188 -46 callgsubr
          615 -87 67 callgsubr
        </CharString>
        <CharString name="dvK_S_TA">
          1570 2023 485 rmoveto
          -366 -64 callsubr
          -68 -207 vlineto
          -79 callgsubr
          662 hlineto
          -788 -192 133 callgsubr
          1061 91 rmoveto
          -2316 -59 494 -392 hlineto
          -107 callgsubr
          188 -46 callgsubr
          608 -202 94 callsubr
        </CharString>
        <CharString name="dvK_S_TTA">
          1525 1659 485 rmoveto
          -98 callsubr
          -68 -209 vlineto
          -79 callgsubr
          607 -78 hlineto
          -733 -114 133 callgsubr
          870 -105 252 callsubr
          -2271 -90 callgsubr
          188 -46 callgsubr
          610 -202 -88 callsubr
          398 -85 callgsubr
          166 -138 -153 vlineto
          -26 -6 -6 -26 vhcurveto
          -214 -102 callgsubr
          endchar
        </CharString>
        <CharString name="dvK_TA">
          409 1135 563 rmoveto
          59 -1155 -59 514 -78 -467 -59 79 vlineto
          -8 96 callgsubr
          -317 -88 callsubr
          258 59 -166 -84 callgsubr
          303 128 callgsubr
          232 -426 136 392 hlineto
          26 8 8 62 callsubr
          -303 -74 callsubr
          -166 -59 258 -85 callgsubr
          329 -40 callsubr
          -289 hlineto
          -57 callgsubr
          vlineto
          endchar
        </CharString>
        <CharString name="dvK_THA">
          1070 1796 622 30 callsubr
          -184 vlineto
          -57 callgsubr
          69 59 -700 -90 callgsubr
          318 105 hlineto
          24 callsubr
        </CharString>
        <CharString name="dvK_TTA">
          763 1206 485 rmoveto
          -563 hlineto
          -57 callgsubr
          595 vlineto
          137 -137 252 callsubr
          -1509 -90 callgsubr
          175 hlineto
          -42 callsubr
          1 callsubr
          398 -85 callgsubr
          166 -138 -153 vlineto
          -26 -6 -6 -26 vhcurveto
          -214 -102 callgsubr
          endchar
        </CharString>
        <CharString name="dvK_T_RA">
          830 1283 282 rmoveto
          -62 hlineto
          -142 141 rlineto
          54 -57 -47 8 -76 hhcurveto
          -256 hlineto
          -57 callgsubr
          672 vlineto
          263 callgsubr
          -1576 -59 494 -392 hlineto
          -107 callgsubr
          184 hlineto
          44 42 -7 -44 47 hvcurveto
          131 -128 -270 -247 rlineto
          169 hlineto
          229 213 rlineto
          62 -213 136 563 137 hlineto
          endchar
        </CharString>
        <CharString name="dvK_T_VA">
          1195 1647 171 rmoveto
          -82 callgsubr
          -954 hlineto
          -57 callgsubr
          1036 262 callgsubr
          -1941 -59 494 -392 hlineto
          -107 callgsubr
          171 hlineto
          -42 callsubr
          -329 -95 callsubr
          244 hlineto
          -42 callsubr
          -19 callgsubr
        </CharString>
        <CharString name="dvK_T_YA">
          1486 1938 175 85 callgsubr
          -2232 -59 494 -392 hlineto
          -107 callgsubr
          178 hlineto
          -42 callsubr
          1 callsubr
          207 59 -116 286 callsubr
          304 59 -652 hlineto
          -57 callgsubr
          968 vlineto
          165 callgsubr
        </CharString>
        <CharString name="dvK_VA">
          780 1232 171 rmoveto
          -82 callgsubr
          -539 hlineto
          -57 callgsubr
          621 262 callgsubr
          -1526 -59 494 -392 hlineto
          -107 callgsubr
          169 hlineto
          -42 callsubr
          -19 callgsubr
        </CharString>
        <CharString name="dvK_V_YA">
          1462 1915 -101 callsubr
          -937 -426 rmoveto
          -104 callsubr
          200 59 -535 hlineto
          -57 callgsubr
          945 vlineto
          161 callgsubr
          952 485 rmoveto
          -2209 -59 494 -392 hlineto
          -107 callgsubr
          164 hlineto
          -42 callsubr
          58 callsubr
          355 44 callgsubr
        </CharString>
        <CharString name="dvK_YA">
          1009 1461 175 -44 callsubr
          -1755 -59 494 -392 hlineto
          -107 callgsubr
          173 59 -175 hlineto
          -57 callgsubr
          491 vlineto
          -89 callgsubr
        </CharString>
        <CharString name="dvKx">
          37 108 -95 -25 callgsubr
          535 472 179 callgsubr
          224 59 -855 -90 callgsubr
          265 59 hlineto
          endchar
        </CharString>
        <CharString name="dvKxA">
          379 145 -95 -25 callgsubr
          960 550 rmoveto
          59 -1125 -59 494 -392 vlineto
          -26 -8 -8 -26 vhcurveto
          -186 hlineto
          -26 -5 6 26 hvcurveto
          225 vlineto
          26 5 6 26 vhcurveto
          170 59 -262 hlineto
          -53 -24 -25 -53 hvcurveto
          -49 callgsubr
        </CharString>
        <CharString name="dvKx_BA">
          854 108 -95 -25 callgsubr
          870 413 rmoveto
          285 59 -620 hlineto
          -57 callgsubr
          695 -248 vlineto
          272 callsubr
          -329 -43 10 callgsubr
          308 485 rmoveto
          -1600 -59 494 -392 hlineto
          -107 callgsubr
          175 hlineto
          111 callsubr
        </CharString>
        <CharString name="dvKx_KxA">
          1125 108 -95 -25 callgsubr
          784 -108 -25 callgsubr
          329 158 rmoveto
          -95 callgsubr
          -528 hlineto
          -57 callgsubr
          610 vlineto
          631 hmoveto
          59 -1872 -90 callgsubr
          188 hlineto
          -53 callsubr
        </CharString>
        <CharString name="dvKx_MA">
          1090 108 -95 -25 callgsubr
          1435 472 rmoveto
          -195 78 195 hlineto
          -333 -394 -96 callgsubr
          59 vmoveto
          -567 hlineto
          -57 callgsubr
          599 vlineto
          607 59 rmoveto
          -1837 -59 494 -392 hlineto
          -107 callgsubr
          166 hlineto
          -42 callsubr
          -69 callsubr
          195 -33 callgsubr
        </CharString>
        <CharString name="dvKx_PHA">
          1161 108 -95 -25 callgsubr
          1145 158 -57 callsubr
          394 275 vlineto
          -610 -78 179 callgsubr
          233 -78 vlineto
          1045 78 rmoveto
          59 -1909 -90 callgsubr
          199 -270 hlineto
          -100 callsubr
          299 hlineto
          14 11 3 6 7 hvcurveto
          -87 -91 callgsubr
        </CharString>
        <CharString name="dvKx_PHxA">
          1161 108 -103 47 callgsubr
          109 -137 hlineto
          761 -101 -25 callgsubr
          384 158 -57 callsubr
          394 275 vlineto
          -610 -78 179 callgsubr
          233 -78 vlineto
          1045 78 rmoveto
          59 -1909 -90 callgsubr
          199 -270 hlineto
          -100 callsubr
          299 hlineto
          14 11 3 6 7 hvcurveto
          -87 -91 callgsubr
        </CharString>
        <CharString name="dvKx_R">
          35 318 -243 -25 callgsubr
          326 620 66 callsubr
        </CharString>
        <CharString name="dvKx_RA">
          380 318 -243 -25 callgsubr
          788 698 rmoveto
          59 -1126 -59 495 -386 vlineto
          -26 -8 -8 -26 vhcurveto
          -186 hlineto
          -26 -6 6 25 hvcurveto
          220 vlineto
          26 6 6 26 vhcurveto
          170 59 -262 hlineto
          -53 -25 -25 -53 hvcurveto
          -246 -22 callgsubr
        </CharString>
        <CharString name="dvKx_TA">
          808 108 -95 -25 callgsubr
          1153 472 rmoveto
          -618 hlineto
          -57 callgsubr
          650 vlineto
          263 callgsubr
          -1554 -59 494 -392 hlineto
          -107 callgsubr
          173 hlineto
          -42 callsubr
          -329 94 callsubr
        </CharString>
        <CharString name="dvL">
          65 863 0 callgsubr
          -883 -59 883 hlineto
          -250 -78 rmoveto
          -36 -14 -16 -29 -4 hvcurveto
          -4 hlineto
          7 callsubr
          -316 -64 callsubr
          -103 callsubr
          262 59 hlineto
          endchar
        </CharString>
        <CharString name="dvLA">
          425 1151 0 callgsubr
          -1171 -59 897 232 callgsubr
          -329 -52 callsubr
        </CharString>
        <CharString name="dvLL">
          346 28 callsubr
          -904 137 rmoveto
          -59 1092 59 vlineto
          endchar
        </CharString>
        <CharString name="dvLLA">
          346 830 169 rmoveto
          -26 -7 161 callsubr
          7 -6 -26 hvcurveto
          -364 -225 rmoveto
          -26 -6 161 callsubr
          6 -6 -26 hvcurveto
          606 169 rmoveto
          59 -1092 -59 684 -78 -82 vlineto
          -36 -15 -15 -30 -3 hvcurveto
          -4 hlineto
          7 callsubr
          -294 -64 callsubr
          58 callsubr
          294 hlineto
          41 17 13 32 4 hvcurveto
          4 hlineto
          -31 4 14 -14 36 hhcurveto
          302 -85 callgsubr
          251 -40 callsubr
          -82 78 hlineto
          endchar
        </CharString>
        <CharString name="dvLL_YA">
          1305 28 callsubr
          874 -310 -44 callsubr
          -2052 -59 1419 hlineto
          -89 callgsubr
        </CharString>
        <CharString name="dvL_BA">
          877 1009 221 callgsubr
          308 485 rmoveto
          -1623 -59 1349 213 callsubr
          -673 hlineto
          -36 -14 -16 -29 -4 hvcurveto
          -4 hlineto
          7 callsubr
          -316 -64 callsubr
          -103 callsubr
          186 hlineto
          111 callsubr
        </CharString>
        <CharString name="dvL_BHA">
          1114 659 0 callgsubr
          -679 -59 679 hlineto
          575 273 callgsubr
          110 vlineto
          26 187 callsubr
          606 312 rmoveto
          -273 248 callsubr
          -224 vlineto
          -36 -14 -16 -29 -4 hvcurveto
          -4 hlineto
          7 callsubr
          -316 -64 callsubr
          -103 callsubr
          318 105 hlineto
          43 callgsubr
          195 -310 76 callsubr
        </CharString>
        <CharString name="dvL_DA">
          808 1391 111 callgsubr
          143 59 -1554 -59 1273 -78 -326 vlineto
          -8 0 -306 hlineto
          -36 -14 -16 -29 -4 hvcurveto
          -4 hlineto
          7 callsubr
          -316 -64 callsubr
          -103 callsubr
          194 hlineto
          -42 callsubr
          -21 callsubr
        </CharString>
        <CharString name="dvL_DDA">
          768 1359 297 callsubr
          -1514 -59 1242 -78 -609 vlineto
          -36 -14 -16 -29 -4 hvcurveto
          -4 hlineto
          7 callsubr
          -316 -64 callsubr
          -103 callsubr
          182 hlineto
          -42 callsubr
          -78 95 callsubr
          -66 callgsubr
        </CharString>
        <CharString name="dvL_DDHA">
          807 1365 111 callgsubr
          168 59 -1553 -59 1247 -78 -614 vlineto
          -36 -14 -16 -29 -4 hvcurveto
          -4 hlineto
          7 callsubr
          -316 -64 callsubr
          -103 callsubr
          183 hlineto
          -42 callsubr
          1 callsubr
          422 -64 callgsubr
          134 -58 callgsubr
          -222 -59 138 -85 callsubr
          -108 -74 callsubr
          -246 -102 callgsubr
          endchar
        </CharString>
        <CharString name="dvL_D_RA">
          806 1388 111 callgsubr
          144 59 -1552 -59 1271 -78 -326 vlineto
          -6 0 -306 hlineto
          -36 -14 -16 -29 -4 hvcurveto
          -4 hlineto
          7 callsubr
          -316 -64 callsubr
          -103 callsubr
          191 hlineto
          -42 callsubr
          12 callsubr
          endchar
        </CharString>
        <CharString name="dvL_GA">
          1202 555 440 rmoveto
          7 callsubr
          -316 -64 callsubr
          -103 callsubr
          177 59 -221 hlineto
          -36 -14 -16 -29 -4 hvcurveto
          484 -303 rmoveto
          -59 callgsubr
          635 485 rmoveto
          -1948 -59 1345 -137 -365 83 callgsubr
          425 -64 callgsubr
          407 193 -563 76 callsubr
        </CharString>
        <CharString name="dvL_HA">
          794 1382 296 callsubr
          -1540 -59 1265 -78 -322 vlineto
          -4 0 -306 hlineto
          -36 -14 -16 -29 -4 hvcurveto
          -4 hlineto
          7 callsubr
          -316 -64 callsubr
          -103 callsubr
          190 hlineto
          -42 callsubr
          -59 21 callgsubr
          -154 -18 callgsubr
        </CharString>
        <CharString name="dvL_JA">
          1112 1838 0 callgsubr
          -1858 -59 1584 64 callsubr
          -363 vlineto
          -36 -14 -16 -29 -4 hvcurveto
          -4 hlineto
          7 callsubr
          -316 -64 callsubr
          -103 callsubr
          185 -270 hlineto
          16 callgsubr
        </CharString>
        <CharString name="dvL_JxA">
          1123 1050 -95 -25 callgsubr
          799 609 rmoveto
          -1869 -59 1595 64 callsubr
          -374 vlineto
          -36 -14 -16 -29 -4 hvcurveto
          -4 hlineto
          7 callsubr
          -316 -64 callsubr
          -103 callsubr
          196 -270 hlineto
          16 callgsubr
        </CharString>
        <CharString name="dvL_KA">
          1118 1845 563 rmoveto
          59 -1865 -59 1234 137 callgsubr
          -551 hlineto
          -36 -14 -16 -29 -4 hvcurveto
          -4 hlineto
          7 callsubr
          -316 -64 callsubr
          -103 callsubr
          169 hlineto
          -53 callsubr
        </CharString>
        <CharString name="dvL_KHA">
          1398 2124 0 callgsubr
          -2144 -59 1196 -238 hlineto
          88 callgsubr
          192 -359 hlineto
          -36 -14 -16 -29 -4 hvcurveto
          -4 hlineto
          7 callsubr
          -316 -64 callsubr
          -103 callsubr
          177 60 callgsubr
        </CharString>
        <CharString name="dvL_K_YA">
          1761 2213 175 -44 callsubr
          -2507 -59 1233 -392 hlineto
          -75 callgsubr
          -186 -104 callgsubr
          170 59 -550 hlineto
          -36 -14 -16 -29 -4 hvcurveto
          -4 hlineto
          7 callsubr
          -316 -64 callsubr
          -103 callsubr
          167 hlineto
          -42 callsubr
          58 callsubr
          280 255 callgsubr
          59 -188 hlineto
          -57 callgsubr
          504 vlineto
          -89 callgsubr
        </CharString>
        <CharString name="dvL_LA">
          1173 1899 0 callgsubr
          -1919 -59 1645 -78 130 callgsubr
          -6 0 -306 hlineto
          -36 -14 -16 -29 -4 hvcurveto
          -4 hlineto
          7 callsubr
          -316 -64 callsubr
          -103 callsubr
          191 hlineto
          -42 callsubr
          -329 -52 callsubr
        </CharString>
</ttFont>
